<?xml version="1.0" encoding="UTF-8"?>
<svg id="Layer_1" data-name="Layer 1" xmlns="http://www.w3.org/2000/svg" viewBox="0 0 1000 302.95">
  <defs>
    <style>
      .cls-1, .cls-2 {
        fill: #fff;
      }

      .cls-2 {
        fill-rule: evenodd;
      }
    </style>
  </defs>
  <path class="cls-2" d="M285.19,110.31l-105.16-78.16c-8.67-6.44-20.53-6.44-29.2,0L45.66,110.32c-8.57,6.37-12.02,17.55-8.53,27.64l41.92,121.19c3.41,9.86,12.7,16.47,23.13,16.47h126.37c10.43,0,19.71-6.6,23.12-16.45l42.04-121.2c3.5-10.09.05-21.29-8.52-27.66ZM198.74,75.47c3.73,1.91,5.96,6.18,5.35,10.24-.68,4.54-3.88,7.94-8.37,8.67-4.48.73-7.81-1.3-10.46-4.61,1.53-1.54,3.01-3.04,4.98-5.04.45.66.82,1.49,1.43,2.07,1.53,1.46,3.51,1.4,4.87-.02,1.3-1.35,1.27-3.48-.06-4.79-1.37-1.34-3.42-1.35-4.9.12-3.74,3.71-7.43,7.46-11.08,11.14-1.57-1.63-3.05-3.17-4.78-4.97.71-.65,1.7-1.49,2.63-2.41,2.88-2.85,5.72-5.75,8.61-8.58,3.22-3.16,7.84-3.85,11.79-1.82ZM169.91,75.78c1.31,1.33,2.8,2.83,4.22,4.27-4.34,4.34-8.72,8.73-13.15,13.16-1.36-1.46-2.8-3-4.15-4.45,4.24-4.21,8.64-8.57,13.07-12.98ZM166.34,70.4c1.34-1.37,2.82-2.88,4.22-4.32,4.4,4.39,8.79,8.77,13.17,13.15-1.44,1.42-2.95,2.9-4.4,4.33-4.29-4.34-8.64-8.74-12.99-13.15ZM164.55,98.25c-1.47,1.49-2.95,2.99-4.37,4.42-4.3-4.32-8.64-8.69-12.89-12.95,1.38-1.37,2.9-2.88,4.35-4.33,4.2,4.18,8.56,8.53,12.9,12.85ZM148.15,97.03c.72-.84,1.55-1.59,2.31-2.35,1.54,1.58,3.04,3.13,4.85,4.99-.48.36-1.2.78-1.75,1.35-1.45,1.5-1.48,3.54-.15,4.9,1.4,1.44,3.44,1.43,5.01-.11,3.5-3.45,6.96-6.95,10.44-10.42.25-.25.52-.48.68-.63,1.57,1.54,3.1,3.05,4.4,4.33-3.98,4.14-7.97,8.44-12.16,12.55-.97.95-2.57,1.44-3.96,1.76-4.23.94-8.52-1.03-10.65-4.71-2.17-3.73-1.79-8.36,1-11.65ZM171.07,103.84c.45.67.8,1.44,1.37,1.99,1.52,1.49,3.5,1.52,4.89.18,1.43-1.38,1.44-3.45-.09-5-3.48-3.54-7-7.03-10.51-10.54-.21-.21-.41-.44-.47-.51,1.52-1.57,3.01-3.12,4.57-4.74.2.17.54.46.86.77,3.4,3.4,6.81,6.79,10.2,10.21,4.14,4.18,4.25,10.42.28,14.45-4.02,4.08-10.3,4-14.56-.17-.54-.53-1.15-.97-1.7-1.44,1.73-1.74,3.22-3.24,5.17-5.2ZM167.66,58.32c4.14-4.1,10.46-4.15,14.46-.13,3.97,3.99,3.92,10.21-.11,14.35-.53.54-.99,1.15-1.53,1.78-1.74-1.74-3.23-3.22-4.82-4.81.33-.35.69-.76,1.07-1.14,1.94-1.94,2.19-3.89.69-5.45-1.52-1.58-3.56-1.35-5.56.64-3.23,3.22-6.45,6.45-9.68,9.68-.32.32-.66.62-.95.89-1.49-1.57-2.95-3.1-4.55-4.77.11-.12.42-.49.76-.83,3.4-3.41,6.8-6.82,10.22-10.21ZM148.44,58.43c3.48-3.79,9.46-4.32,13.53-1.15.99.77,1.84,1.72,2.75,2.59-1.63,1.64-3.12,3.14-4.98,5.01-.47-.63-.89-1.41-1.51-1.99-1.45-1.36-3.46-1.32-4.78-.02-1.36,1.34-1.38,3.43.06,4.9,3.38,3.43,6.8,6.82,10.2,10.23.35.35.69.73,1,1.06-1.57,1.54-3.08,3.02-4.66,4.57.04.02-.13-.01-.22-.11-3.8-3.79-7.66-7.53-11.38-11.41-3.64-3.8-3.57-9.79,0-13.68ZM126.67,83.77c.19-3.95,2.82-7.45,6.63-8.84,4.45-1.62,9.23.04,12.22,4.2-1.51,1.5-3.01,2.99-4.92,4.89-.4-.58-.78-1.33-1.35-1.89-1.55-1.51-3.64-1.49-5-.05-1.24,1.32-1.24,3.38,0,4.69,1.4,1.46,3.44,1.48,5-.06,3.74-3.71,7.44-7.46,11.22-11.27,1.64,1.62,3.14,3.11,4.98,4.92-1.25,1.11-2.53,2.17-3.71,3.33-2.75,2.69-5.41,5.49-8.2,8.14-3.01,2.86-7.44,3.47-11.17,1.7-3.72-1.77-5.91-5.52-5.7-9.76ZM138.52,216.87l-21.84-43.39-23.2,43.38h-7.03l26.69-50.99-2.04-3.98-29.3,54.97h-14.88l42.97-82.92,40.43,82.92h-11.81ZM208.12,207.09c-3.19,3.03-7.24,5.39-12.15,7.06-4.91,1.68-10.32,2.51-16.22,2.51-7.82,0-14.79-1.71-20.89-5.15-6.11-3.43-10.88-8.26-14.31-14.49-3.43-6.23-5.15-13.45-5.15-21.67s1.71-15.46,5.15-21.73c3.43-6.26,8.2-11.11,14.31-14.55,6.11-3.43,13.07-5.15,20.89-5.15,5.19,0,10,.66,14.43,1.98,4.43,1.32,8.28,3.17,11.55,5.57l-4.43,14.61c-2.87-2.23-6.11-3.95-9.7-5.15-3.59-1.2-7.3-1.8-11.13-1.8-7.5,0-13.51,2.38-18.02,7.12-4.51,4.75-6.76,11.11-6.76,19.1s2.25,14.33,6.76,19.03c4.51,4.71,10.51,7.06,18.02,7.06,3.99,0,7.78-.72,11.37-2.16v-14.72h-14.37v-15.32h30.65v37.83ZM263.91,215.23h-50.04v-79.85h16.28v64.65h33.76v15.2Z"/>
  <g>
    <path class="cls-2" d="M652.19,158.75c172.33,0,312.02.98,312.02,2.19s-139.7,2.19-312.02,2.19-312.02-.98-312.02-2.19,139.7-2.19,312.02-2.19"/>
    <g>
      <path class="cls-1" d="M352.84,172.24h8.09l12.68,38.88h-7.3l-5.92-20.69c-1.24-4.11-2.38-8.55-3.52-12.82h-.24c-1.07,4.3-2.21,8.7-3.45,12.82l-5.97,20.69h-7.04l12.68-38.88ZM347.66,195.18h18.31v5.41h-18.31v-5.41Z"/>
      <path class="cls-1" d="M375.99,207.77l3.19-4.35c2.59,2.02,5.1,3.26,8.06,3.26,3.19,0,4.68-1.5,4.68-3.5,0-2.45-3.16-3.54-6.28-4.73-3.83-1.44-8.2-3.64-8.2-8.51s4.09-8.73,10.63-8.73c4.07,0,7.32,1.65,9.7,3.5l-3.14,4.21c-2.05-1.5-4.1-2.54-6.4-2.54-2.94,0-4.33,1.4-4.33,3.23,0,2.31,2.95,3.19,6.11,4.35,3.95,1.47,8.37,3.38,8.37,8.82,0,5.02-3.97,9.06-11.34,9.06-4,0-8.21-1.71-11.06-4.07Z"/>
      <path class="cls-1" d="M401.62,207.77l3.19-4.35c2.59,2.02,5.1,3.26,8.06,3.26,3.19,0,4.68-1.5,4.68-3.5,0-2.45-3.16-3.54-6.28-4.73-3.83-1.44-8.2-3.64-8.2-8.51s4.09-8.73,10.63-8.73c4.07,0,7.32,1.65,9.7,3.5l-3.14,4.21c-2.05-1.5-4.1-2.54-6.4-2.54-2.94,0-4.33,1.4-4.33,3.23,0,2.31,2.95,3.19,6.11,4.35,3.95,1.47,8.37,3.38,8.37,8.82,0,5.02-3.97,9.06-11.34,9.06-4,0-8.21-1.71-11.06-4.07Z"/>
      <path class="cls-1" d="M429.81,200.23v-18.31h6.85v17.43c0,4.8,1.38,6.61,4.54,6.61,2.57,0,4.26-1.19,6.47-4.04v-20h6.85v29.2h-5.61l-.52-4.3h-.19c-2.57,3.04-5.4,5.02-9.39,5.02-6.25,0-8.99-4.23-8.99-11.6Z"/>
      <path class="cls-1" d="M463.2,181.92h5.61l.52,5.21h.19c2.08-3.81,5.17-5.92,8.3-5.92,1.49,0,2.43.19,3.31.59l-1.19,5.95c-1.02-.29-1.78-.48-3-.48-2.33,0-5.14,1.59-6.9,6.04v17.81h-6.85v-29.2Z"/>
      <path class="cls-1" d="M482.27,203.27c0-6.25,5.18-9.51,17.17-10.8-.1-3.14-1.36-5.76-5.3-5.76-2.9,0-5.64,1.31-8.2,2.88l-2.52-4.57c3.21-2.02,7.35-3.83,11.99-3.83,7.3,0,10.89,4.49,10.89,12.63v17.29h-5.61l-.52-3.23h-.19c-2.62,2.24-5.61,3.95-9.06,3.95-5.11,0-8.63-3.47-8.63-8.56ZM499.44,203.3v-6.56c-7.92,1-10.56,3.07-10.56,6.02,0,2.58,1.76,3.71,4.21,3.71s4.19-1.17,6.35-3.16Z"/>
      <path class="cls-1" d="M514.52,181.92h5.61l.52,3.95h.19c2.62-2.54,5.59-4.66,9.58-4.66,6.25,0,8.99,4.23,8.99,11.6v18.31h-6.85v-17.43c0-4.8-1.38-6.61-4.54-6.61-2.57,0-4.26,1.26-6.66,3.64v20.4h-6.85v-29.2Z"/>
      <path class="cls-1" d="M545.89,196.54c0-9.73,6.87-15.34,14.65-15.34,3.71,0,6.42,1.43,8.54,3.28l-3.33,4.45c-1.55-1.36-3.02-2.14-4.85-2.14-4.71,0-7.97,3.9-7.97,9.75s3.21,9.7,7.75,9.7c2.28,0,4.38-1.12,6.04-2.52l2.78,4.52c-2.73,2.43-6.21,3.59-9.54,3.59-7.97,0-14.08-5.61-14.08-15.29Z"/>
      <path class="cls-1" d="M571.93,196.54c0-9.49,6.59-15.34,13.46-15.34,7.9,0,12.06,5.71,12.06,13.86,0,1.31-.14,2.62-.3,3.33h-18.54c.57,5.18,3.9,8.13,8.61,8.13,2.5,0,4.64-.78,6.78-2.12l2.33,4.26c-2.78,1.88-6.3,3.16-10.01,3.16-8.06,0-14.39-5.66-14.39-15.29ZM591.53,193.74c0-4.49-2-7.23-5.99-7.23-3.4,0-6.4,2.54-6.99,7.23h12.99Z"/>
      <path class="cls-1" d="M601.11,207.77l3.19-4.35c2.59,2.02,5.1,3.26,8.06,3.26,3.19,0,4.68-1.5,4.68-3.5,0-2.45-3.16-3.54-6.28-4.73-3.83-1.44-8.2-3.64-8.2-8.51s4.09-8.73,10.63-8.73c4.07,0,7.32,1.65,9.7,3.5l-3.14,4.21c-2.05-1.5-4.1-2.54-6.4-2.54-2.94,0-4.33,1.4-4.33,3.23,0,2.31,2.95,3.19,6.11,4.35,3.95,1.47,8.37,3.38,8.37,8.82,0,5.02-3.97,9.06-11.34,9.06-4,0-8.21-1.71-11.06-4.07Z"/>
      <path class="cls-1" d="M640.08,191.81c0-12.72,8.06-20.29,18.41-20.29,5.52,0,9.3,2.43,11.75,4.92l-3.69,4.45c-1.95-1.9-4.23-3.38-7.85-3.38-6.9,0-11.53,5.35-11.53,14.08s4.11,14.25,11.91,14.25c2.16,0,4.3-.62,5.54-1.71v-8.4h-7.32v-5.66h13.51v17.15c-2.59,2.62-7.09,4.61-12.41,4.61-10.49,0-18.31-7.16-18.31-20.02Z"/>
      <path class="cls-1" d="M676.94,196.54c0-9.49,6.59-15.34,13.46-15.34,7.9,0,12.06,5.71,12.06,13.86,0,1.31-.14,2.62-.3,3.33h-18.54c.57,5.18,3.9,8.13,8.61,8.13,2.5,0,4.64-.78,6.78-2.12l2.33,4.26c-2.78,1.88-6.3,3.16-10.01,3.16-8.06,0-14.39-5.66-14.39-15.29ZM696.54,193.74c0-4.49-2-7.23-5.99-7.23-3.4,0-6.4,2.54-6.99,7.23h12.99Z"/>
      <path class="cls-1" d="M709.02,181.92h5.61l.52,3.95h.19c2.62-2.54,5.59-4.66,9.58-4.66,6.25,0,8.99,4.23,8.99,11.6v18.31h-6.85v-17.43c0-4.8-1.38-6.61-4.54-6.61-2.57,0-4.26,1.26-6.66,3.64v20.4h-6.85v-29.2Z"/>
      <path class="cls-1" d="M740.39,196.54c0-9.49,6.59-15.34,13.46-15.34,7.9,0,12.06,5.71,12.06,13.86,0,1.31-.14,2.62-.3,3.33h-18.54c.57,5.18,3.9,8.13,8.61,8.13,2.5,0,4.64-.78,6.78-2.12l2.33,4.26c-2.78,1.88-6.3,3.16-10.01,3.16-8.06,0-14.39-5.66-14.39-15.29ZM759.98,193.74c0-4.49-2-7.23-5.99-7.23-3.4,0-6.4,2.54-6.99,7.23h12.99Z"/>
      <path class="cls-1" d="M772.46,181.92h5.61l.52,5.21h.19c2.08-3.81,5.17-5.92,8.3-5.92,1.49,0,2.43.19,3.31.59l-1.19,5.95c-1.02-.29-1.78-.48-3-.48-2.33,0-5.14,1.59-6.9,6.04v17.81h-6.85v-29.2Z"/>
      <path class="cls-1" d="M791.52,203.27c0-6.25,5.18-9.51,17.17-10.8-.1-3.14-1.36-5.76-5.3-5.76-2.9,0-5.64,1.31-8.21,2.88l-2.52-4.57c3.21-2.02,7.35-3.83,11.99-3.83,7.3,0,10.89,4.49,10.89,12.63v17.29h-5.61l-.52-3.23h-.19c-2.62,2.24-5.61,3.95-9.06,3.95-5.11,0-8.63-3.47-8.63-8.56ZM808.69,203.3v-6.56c-7.92,1-10.56,3.07-10.56,6.02,0,2.58,1.76,3.71,4.21,3.71s4.19-1.17,6.35-3.16Z"/>
      <path class="cls-1" d="M823.77,203.61v-34.48h6.85v34.84c0,1.69.76,2.28,1.47,2.28.31,0,.55,0,1.07-.12l.86,5.11c-.83.33-1.97.59-3.61.59-4.85,0-6.64-3.14-6.64-8.23Z"/>
      <path class="cls-1" d="M852.37,172.24h6.9v33.08h16.15v5.8h-23.04v-38.88Z"/>
      <path class="cls-1" d="M880.06,203.27c0-6.25,5.18-9.51,17.17-10.8-.1-3.14-1.36-5.76-5.3-5.76-2.9,0-5.64,1.31-8.2,2.88l-2.52-4.57c3.21-2.02,7.35-3.83,11.99-3.83,7.3,0,10.89,4.49,10.89,12.63v17.29h-5.61l-.52-3.23h-.19c-2.62,2.24-5.61,3.95-9.06,3.95-5.11,0-8.63-3.47-8.63-8.56ZM897.23,203.3v-6.56c-7.92,1-10.56,3.07-10.56,6.02,0,2.58,1.76,3.71,4.21,3.71s4.19-1.17,6.35-3.16Z"/>
      <path class="cls-1" d="M910.39,196.54c0-9.73,6.61-15.34,13.89-15.34s13.89,5.61,13.89,15.34-6.61,15.29-13.89,15.29-13.89-5.61-13.89-15.29ZM931.12,196.54c0-5.85-2.57-9.75-6.85-9.75s-6.85,3.9-6.85,9.75,2.57,9.7,6.85,9.7,6.85-3.85,6.85-9.7Z"/>
      <path class="cls-1" d="M941.82,207.77l3.19-4.35c2.59,2.02,5.1,3.26,8.06,3.26,3.19,0,4.68-1.5,4.68-3.5,0-2.45-3.16-3.54-6.28-4.73-3.83-1.44-8.2-3.64-8.2-8.51s4.09-8.73,10.63-8.73c4.07,0,7.32,1.65,9.7,3.5l-3.14,4.21c-2.05-1.5-4.1-2.54-6.4-2.54-2.94,0-4.33,1.4-4.33,3.23,0,2.31,2.95,3.19,6.11,4.35,3.95,1.47,8.37,3.38,8.37,8.82,0,5.02-3.97,9.06-11.34,9.06-4,0-8.21-1.71-11.06-4.07Z"/>
    </g>
    <g>
      <path class="cls-1" d="M364.67,131.24v-19.05h8.86v19.55c0,11.57-5.85,16.34-14.96,16.34s-14.96-4.78-14.96-16.34v-10.75c0-1.51-.44-2.07-2.01-2.07h-1.32v-6.35s2.51-.38,4.97-.38c4.59,0,7.23,1.57,7.23,7.48v11.57c0,5.91,1.38,9.43,6.1,9.43s6.1-3.52,6.1-9.43Z"/>
      <path class="cls-1" d="M351.41,101.38c0-4.4,2.83-7.1,7.1-7.1s7.1,2.7,7.1,7.1-2.89,7.1-7.1,7.1-7.1-2.7-7.1-7.1ZM358.51,104.34c1.26,0,2.39-.75,2.39-2.95s-1.13-2.95-2.39-2.95-2.39.75-2.39,2.95,1.13,2.95,2.39,2.95Z"/>
      <path class="cls-1" d="M415.9,126.03v22.06h-8.86c-5.91,0-8.42-12.07-13.26-12.07-1.51,0-2.58.94-2.58,2.77,0,2.26.75,3.71,3.58,3.71v5.15c-6.29,1.38-12.13-.69-12.13-8.86,0-4.4,2.64-9.37,9.37-9.37,10.12,0,12.7,11.94,15.02,11.94v-15.34c0-4.02-.94-7.23-7.79-7.23-2.77,0-7.73.31-7.73,5.59h-8.86c0-7.48,4.97-12.13,16.59-12.13,13.2,0,16.66,6.22,16.66,13.77Z"/>
      <path class="cls-1" d="M412.32,101.95c0,3.83-2.39,6.16-2.39,6.16h-5.22s1.07-1.76,1.07-3.77c0-3.08-2.58-4.9-6.66-4.9s-6.66,1.82-6.66,4.9c0,2.01,1.13,3.77,1.13,3.77h-5.22s-2.45-2.33-2.45-6.16c0-4.46,3.58-9.18,13.2-9.18s13.2,4.71,13.2,9.18Z"/>
      <path class="cls-1" d="M434.38,129.42c10.18,0,12.76,11.94,15.09,11.94v-14.14c0-1.13-.13-2.14-.25-3.14-2.7,2.26-6.47,3.14-10.5,3.14-8.67,0-13.7-2.83-13.7-7.29,0-5.53,5.41-7.61,14.21-7.61,5.41,0,8.67,1.19,8.67,1.19,1.76,0,2.26-2.2,2.26-3.96v-2.45h8.86v1.63c0,5.03-3.02,7.42-6.1,7.42v.31c3.02,1.57,5.41,4.53,5.41,10.75v20.87h-8.86c-5.91,0-8.42-12.07-13.26-12.07-1.51,0-2.58.94-2.58,2.77,0,2.26.69,3.71,3.58,3.71v5.15c-6.29,1.38-12.19-.69-12.19-8.86,0-4.4,2.7-9.37,9.37-9.37ZM446.7,119.49c-1.57-1.19-4.02-1.89-7.48-1.89-2.2,0-5.53.19-5.53,2.33,0,1.7,2.2,2.39,5.03,2.39,4.53,0,6.79-1.13,7.98-2.83Z"/>
      <path class="cls-1" d="M442.87,97.74h16.09v7.42h-20.11c-3.08,0-5.53-1.57-5.53-6.6v-3.77h7.73v1.13c0,1.38.5,1.82,1.82,1.82Z"/>
      <path class="cls-1" d="M498,128.67v18.92h-8.86v-18.35c0-5.97-1.32-9.43-6.1-9.43s-6.03,3.46-6.03,9.43v4.21c0,7.79,3.14,8.11,6.22,8.11v6.29c-8.74,1.57-15.09-1.13-15.09-14.39v-4.78c0-11.57,5.78-16.28,14.9-16.28s14.96,4.71,14.96,16.28Z"/>
      <path class="cls-1" d="M548.79,136.9h-16.34l-3.27,10.69h-10.25l15.84-45.07h11.63l15.9,45.07h-10.25l-3.27-10.69ZM542.44,115.78c-.34-1.09-.67-2.2-1.01-3.33s-.61-2.12-.82-2.95c-.21.84-.49,1.88-.85,3.11-.36,1.24-.69,2.41-1.01,3.52s-.56,1.9-.72,2.36l-3.21,10.43h11.69l-3.27-10.43c-.21-.71-.48-1.61-.82-2.7Z"/>
      <path class="cls-1" d="M600.27,122.38v23.26c-2.35.8-4.79,1.42-7.32,1.89-2.54.46-5.42.69-8.64.69-6.7,0-11.86-1.97-15.46-5.91-3.6-3.94-5.41-9.68-5.41-17.22,0-4.69.91-8.76,2.73-12.19,1.82-3.44,4.47-6.1,7.95-7.98,3.48-1.89,7.73-2.83,12.76-2.83,2.39,0,4.74.25,7.04.75,2.3.5,4.4,1.17,6.29,2.01l-3.14,7.61c-1.38-.71-2.95-1.3-4.71-1.76s-3.6-.69-5.53-.69c-2.77,0-5.16.63-7.2,1.89s-3.6,3.03-4.71,5.31c-1.11,2.28-1.67,4.98-1.67,8.08,0,2.93.4,5.53,1.19,7.79.8,2.26,2.05,4.03,3.77,5.31,1.72,1.28,3.96,1.92,6.73,1.92,1.34,0,2.48-.06,3.43-.19.94-.13,1.81-.27,2.61-.44v-9.37h-8.49v-7.92h17.79Z"/>
      <path class="cls-1" d="M610.96,102.71h9.49v37.02h18.23v7.86h-27.72v-44.88Z"/>
      <path class="cls-1" d="M683.44,131.24v-28.16h8.86v28.66c0,11.57-5.85,16.34-14.96,16.34s-14.96-4.78-14.96-16.34v-10.75c0-1.51-.44-2.07-2.01-2.07h-1.32v-6.35s2.51-.38,4.97-.38c4.59,0,7.23,1.57,7.23,7.48v11.57c0,5.91,1.38,9.43,6.1,9.43s6.1-3.52,6.1-9.43Z"/>
      <path class="cls-1" d="M699.9,116.53h7.29c-.69,2.7.44,4.34,2.39,4.34h6.66v7.1h-7.1c-7.29,0-11.19-3.96-9.24-11.44ZM707.19,132.75c-.69,2.7.44,4.34,2.39,4.34h6.66v7.1h-7.1c-7.29,0-11.19-3.96-9.24-11.44h7.29Z"/>
      <path class="cls-1" d="M755.79,124.2v23.38h-8.49v-22.5c0-3.39-1.51-5.72-5.34-5.72-4.02,0-7.1,3.14-7.1,6.91v13.83c0,5.91-3.33,7.48-7.92,7.48h-3.58v-6.79h.57c1.57,0,2.45-.57,2.45-2.07v-16.72c0-1.51-.88-2.07-2.45-2.07h-.57v-6.73h3.58c4.59,0,7.04,2.14,7.04,5.97v.69h.5c1.19-3.46,4.65-7.48,10.37-7.48,6.91,0,10.94,4.21,10.94,11.82Z"/>
      <path class="cls-1" d="M742.59,100.13h16.09v7.42h-20.11c-3.08,0-5.53-1.57-5.53-6.6v-3.77h7.73v1.13c0,1.38.5,1.82,1.82,1.82Z"/>
      <path class="cls-1" d="M786.21,135.71v-23.19h8.49v24.07c0,7.54-4.02,11.82-10.94,11.82-5.72,0-9.18-4.02-10.37-7.48h-.5c0,4.65-2.45,6.66-7.04,6.66h-3.58v-6.79h.57c1.57,0,2.45-.5,2.45-2.01v-17.41c0-1.51-.88-2.07-2.45-2.07h-.57v-6.79h3.58c4.59,0,7.92,1.57,7.92,7.54v14.46c0,3.83,3.08,6.91,7.1,6.91s5.34-2.39,5.34-5.72Z"/>
      <path class="cls-1" d="M819.78,141.3v6.79c-9.18,0-15.15-2.07-15.15-14.39v-16.41c0-1.76-1.19-2.77-2.95-2.77v-5.78c1.38-.57,2.51-1.76,2.51-3.71,0-3.02-2.7-4.09-4.9-4.09v-4.9c7.04,0,13.51,2.64,13.51,8.86,0,4.21-3.58,6.41-5.41,6.66v.25c3.14,0,6.1,2.01,6.1,6.29v15.59c0,7.86,3.65,7.61,6.29,7.61Z"/>
      <path class="cls-1" d="M853.67,133.95v-21.75h8.86v20.81c0,10.18-4.09,15.09-11.38,15.09-3.52,0-6.1-1.45-7.23-3.52h-.57c-1.19,2.07-3.77,3.52-7.1,3.52-7.48,0-13.58-5.15-11.57-15.09.94-4.53,3.39-8.55,3.39-12.01,0-3.14-3.39-2.77-3.39-2.77v-5.66c10.43-1.57,12.26,2.95,12.26,7.1,0,4.53-2.7,10.69-3.39,14.27-.82,4.09.5,6.73,3.08,6.73,2.39,0,3.14-2.39,3.14-5.66v-9.18h7.67v9.18c0,3.27.75,5.66,3.14,5.66,2.58,0,3.08-2.58,3.08-6.73Z"/>
      <path class="cls-1" d="M904.89,126.03v22.06h-8.86c-5.91,0-8.42-12.07-13.26-12.07-1.51,0-2.58.94-2.58,2.77,0,2.26.75,3.71,3.58,3.71v5.15c-6.29,1.38-12.13-.69-12.13-8.86,0-4.4,2.64-9.37,9.37-9.37,10.12,0,12.7,11.94,15.02,11.94v-15.34c0-4.02-.94-7.23-7.79-7.23-2.77,0-7.73.31-7.73,5.59h-8.86c0-7.48,4.97-12.13,16.59-12.13,13.2,0,16.66,6.22,16.66,13.77Z"/>
      <path class="cls-1" d="M926.01,122.82v24.77h-8.86v-24.77c0-4.27-3.21-4.53-7.04-4.27v-6.29c9.49-1.89,15.9.82,15.9,10.56Z"/>
      <path class="cls-1" d="M964.11,126.97v6.41c0,9.05-5.91,14.71-14.71,14.71-7.86,0-13.7-3.58-14.27-11.94h8.74c.63,3.77,2.89,4.78,5.53,4.78,3.21,0,6.16-1.95,6.16-7.54v-6.41c0-5.59-2.95-7.67-6.16-7.67-2.64,0-4.9,1.07-5.53,4.9h-8.74c.57-8.42,6.41-12.01,14.27-12.01,8.8,0,14.71,5.66,14.71,14.77Z"/>
    </g>
  </g>
</svg>