<?xml version="1.0" encoding="UTF-8"?>
<svg id="Layer_1" data-name="Layer 1" xmlns="http://www.w3.org/2000/svg" viewBox="0 0 1000 302.95">
  <defs>
    <style>
      .cls-1 {
        fill: #fff;
      }

      .cls-2, .cls-3 {
        fill: #09f;
      }

      .cls-3 {
        fill-rule: evenodd;
      }
    </style>
  </defs>
  <g>
    <path class="cls-3" d="M652.57,157.91c172.23,0,311.85.98,311.85,2.18s-139.62,2.18-311.85,2.18-311.85-.98-311.85-2.18,139.62-2.18,311.85-2.18"/>
    <g>
      <path class="cls-2" d="M353.39,171.4h8.08l12.67,38.86h-7.3l-5.92-20.68c-1.24-4.11-2.38-8.54-3.52-12.81h-.24c-1.07,4.3-2.21,8.7-3.45,12.81l-5.97,20.68h-7.04l12.67-38.86ZM348.21,194.32h18.3v5.41h-18.3v-5.41Z"/>
      <path class="cls-2" d="M376.52,206.91l3.18-4.35c2.59,2.02,5.1,3.26,8.06,3.26,3.18,0,4.68-1.5,4.68-3.49,0-2.45-3.16-3.54-6.27-4.73-3.83-1.44-8.2-3.64-8.2-8.51s4.09-8.72,10.62-8.72c4.06,0,7.32,1.65,9.7,3.49l-3.14,4.21c-2.04-1.5-4.1-2.54-6.39-2.54-2.94,0-4.33,1.4-4.33,3.23,0,2.31,2.95,3.18,6.11,4.35,3.95,1.47,8.37,3.38,8.37,8.82,0,5.02-3.97,9.06-11.34,9.06-3.99,0-8.2-1.71-11.05-4.06Z"/>
      <path class="cls-2" d="M402.13,206.91l3.18-4.35c2.59,2.02,5.1,3.26,8.06,3.26,3.18,0,4.68-1.5,4.68-3.49,0-2.45-3.16-3.54-6.27-4.73-3.83-1.44-8.2-3.64-8.2-8.51s4.09-8.72,10.62-8.72c4.06,0,7.32,1.65,9.7,3.49l-3.14,4.21c-2.04-1.5-4.1-2.54-6.39-2.54-2.94,0-4.33,1.4-4.33,3.23,0,2.31,2.95,3.18,6.11,4.35,3.95,1.47,8.37,3.38,8.37,8.82,0,5.02-3.97,9.06-11.34,9.06-3.99,0-8.2-1.71-11.05-4.06Z"/>
      <path class="cls-2" d="M430.31,199.37v-18.3h6.85v17.42c0,4.8,1.38,6.61,4.54,6.61,2.57,0,4.25-1.19,6.46-4.04v-19.99h6.85v29.19h-5.61l-.52-4.3h-.19c-2.57,3.04-5.4,5.02-9.39,5.02-6.25,0-8.98-4.23-8.98-11.6Z"/>
      <path class="cls-2" d="M463.68,181.07h5.61l.52,5.21h.19c2.08-3.8,5.17-5.92,8.3-5.92,1.49,0,2.42.19,3.3.59l-1.19,5.94c-1.02-.29-1.78-.48-2.99-.48-2.33,0-5.13,1.59-6.89,6.04v17.8h-6.85v-29.19Z"/>
      <path class="cls-2" d="M482.74,202.41c0-6.25,5.18-9.51,17.16-10.79-.1-3.14-1.35-5.75-5.3-5.75-2.9,0-5.63,1.31-8.2,2.88l-2.52-4.56c3.21-2.02,7.34-3.83,11.98-3.83,7.3,0,10.89,4.49,10.89,12.62v17.28h-5.61l-.52-3.23h-.19c-2.61,2.23-5.61,3.95-9.06,3.95-5.11,0-8.63-3.47-8.63-8.56ZM499.9,202.44v-6.56c-7.91,1-10.55,3.07-10.55,6.01,0,2.58,1.76,3.71,4.21,3.71s4.18-1.17,6.35-3.16Z"/>
      <path class="cls-2" d="M514.97,181.07h5.61l.52,3.95h.19c2.61-2.54,5.59-4.66,9.58-4.66,6.25,0,8.98,4.23,8.98,11.6v18.3h-6.85v-17.42c0-4.8-1.38-6.61-4.54-6.61-2.57,0-4.25,1.26-6.65,3.64v20.39h-6.85v-29.19Z"/>
      <path class="cls-2" d="M546.32,195.69c0-9.72,6.87-15.33,14.64-15.33,3.71,0,6.42,1.43,8.53,3.28l-3.33,4.44c-1.54-1.35-3.02-2.14-4.85-2.14-4.71,0-7.96,3.9-7.96,9.75s3.21,9.7,7.75,9.7c2.28,0,4.37-1.12,6.04-2.52l2.78,4.52c-2.73,2.42-6.2,3.59-9.53,3.59-7.96,0-14.07-5.61-14.07-15.28Z"/>
      <path class="cls-2" d="M572.35,195.69c0-9.48,6.58-15.33,13.45-15.33,7.89,0,12.05,5.7,12.05,13.86,0,1.31-.14,2.61-.3,3.33h-18.53c.57,5.18,3.9,8.13,8.6,8.13,2.5,0,4.63-.78,6.77-2.12l2.33,4.25c-2.78,1.88-6.3,3.16-10.01,3.16-8.06,0-14.38-5.66-14.38-15.28ZM591.94,192.88c0-4.49-2-7.23-5.99-7.23-3.4,0-6.39,2.54-6.99,7.23h12.98Z"/>
      <path class="cls-2" d="M601.51,206.91l3.18-4.35c2.59,2.02,5.1,3.26,8.06,3.26,3.18,0,4.68-1.5,4.68-3.49,0-2.45-3.16-3.54-6.27-4.73-3.83-1.44-8.2-3.64-8.2-8.51s4.09-8.72,10.62-8.72c4.06,0,7.32,1.65,9.7,3.49l-3.14,4.21c-2.04-1.5-4.1-2.54-6.39-2.54-2.94,0-4.33,1.4-4.33,3.23,0,2.31,2.95,3.18,6.11,4.35,3.95,1.47,8.37,3.38,8.37,8.82,0,5.02-3.97,9.06-11.34,9.06-3.99,0-8.2-1.71-11.05-4.06Z"/>
      <path class="cls-2" d="M640.46,190.96c0-12.72,8.06-20.27,18.4-20.27,5.51,0,9.29,2.42,11.74,4.92l-3.68,4.44c-1.95-1.9-4.23-3.38-7.84-3.38-6.89,0-11.53,5.35-11.53,14.07s4.11,14.24,11.91,14.24c2.16,0,4.3-.62,5.54-1.71v-8.39h-7.32v-5.66h13.5v17.14c-2.59,2.61-7.08,4.61-12.41,4.61-10.48,0-18.3-7.15-18.3-20.01Z"/>
      <path class="cls-2" d="M677.3,195.69c0-9.48,6.58-15.33,13.45-15.33,7.89,0,12.05,5.7,12.05,13.86,0,1.31-.14,2.61-.3,3.33h-18.53c.57,5.18,3.9,8.13,8.6,8.13,2.5,0,4.63-.78,6.77-2.12l2.33,4.25c-2.78,1.88-6.3,3.16-10.01,3.16-8.06,0-14.38-5.66-14.38-15.28ZM696.89,192.88c0-4.49-2-7.23-5.99-7.23-3.4,0-6.39,2.54-6.99,7.23h12.98Z"/>
      <path class="cls-2" d="M709.35,181.07h5.61l.52,3.95h.19c2.61-2.54,5.59-4.66,9.58-4.66,6.25,0,8.98,4.23,8.98,11.6v18.3h-6.85v-17.42c0-4.8-1.38-6.61-4.54-6.61-2.57,0-4.25,1.26-6.65,3.64v20.39h-6.85v-29.19Z"/>
      <path class="cls-2" d="M740.71,195.69c0-9.48,6.58-15.33,13.45-15.33,7.89,0,12.05,5.7,12.05,13.86,0,1.31-.14,2.61-.3,3.33h-18.53c.57,5.18,3.9,8.13,8.6,8.13,2.5,0,4.63-.78,6.77-2.12l2.33,4.25c-2.78,1.88-6.3,3.16-10.01,3.16-8.06,0-14.38-5.66-14.38-15.28ZM760.29,192.88c0-4.49-2-7.23-5.99-7.23-3.4,0-6.39,2.54-6.99,7.23h12.98Z"/>
      <path class="cls-2" d="M772.76,181.07h5.61l.52,5.21h.19c2.08-3.8,5.17-5.92,8.3-5.92,1.49,0,2.42.19,3.3.59l-1.19,5.94c-1.02-.29-1.78-.48-2.99-.48-2.33,0-5.13,1.59-6.89,6.04v17.8h-6.85v-29.19Z"/>
      <path class="cls-2" d="M791.82,202.41c0-6.25,5.18-9.51,17.16-10.79-.1-3.14-1.35-5.75-5.3-5.75-2.9,0-5.63,1.31-8.2,2.88l-2.52-4.56c3.21-2.02,7.34-3.83,11.98-3.83,7.3,0,10.89,4.49,10.89,12.62v17.28h-5.61l-.52-3.23h-.19c-2.61,2.23-5.61,3.95-9.06,3.95-5.11,0-8.63-3.47-8.63-8.56ZM808.98,202.44v-6.56c-7.91,1-10.55,3.07-10.55,6.01,0,2.58,1.76,3.71,4.21,3.71s4.18-1.17,6.35-3.16Z"/>
      <path class="cls-2" d="M824.05,202.75v-34.46h6.85v34.82c0,1.69.76,2.28,1.47,2.28.31,0,.55,0,1.07-.12l.86,5.11c-.83.33-1.97.59-3.61.59-4.85,0-6.63-3.14-6.63-8.22Z"/>
      <path class="cls-2" d="M852.63,171.4h6.89v33.06h16.14v5.8h-23.03v-38.86Z"/>
      <path class="cls-2" d="M880.3,202.41c0-6.25,5.18-9.51,17.16-10.79-.1-3.14-1.35-5.75-5.3-5.75-2.9,0-5.63,1.31-8.2,2.88l-2.52-4.56c3.21-2.02,7.34-3.83,11.98-3.83,7.3,0,10.89,4.49,10.89,12.62v17.28h-5.61l-.52-3.23h-.19c-2.61,2.23-5.61,3.95-9.06,3.95-5.11,0-8.63-3.47-8.63-8.56ZM897.46,202.44v-6.56c-7.91,1-10.55,3.07-10.55,6.01,0,2.58,1.76,3.71,4.21,3.71s4.18-1.17,6.35-3.16Z"/>
      <path class="cls-2" d="M910.61,195.69c0-9.72,6.61-15.33,13.88-15.33s13.88,5.61,13.88,15.33-6.61,15.28-13.88,15.28-13.88-5.61-13.88-15.28ZM931.34,195.69c0-5.85-2.57-9.75-6.85-9.75s-6.85,3.9-6.85,9.75,2.57,9.7,6.85,9.7,6.85-3.85,6.85-9.7Z"/>
      <path class="cls-2" d="M942.02,206.91l3.18-4.35c2.59,2.02,5.1,3.26,8.06,3.26,3.18,0,4.68-1.5,4.68-3.49,0-2.45-3.16-3.54-6.27-4.73-3.83-1.44-8.2-3.64-8.2-8.51s4.09-8.72,10.62-8.72c4.06,0,7.32,1.65,9.7,3.49l-3.14,4.21c-2.04-1.5-4.1-2.54-6.39-2.54-2.94,0-4.33,1.4-4.33,3.23,0,2.31,2.95,3.18,6.11,4.35,3.95,1.47,8.37,3.38,8.37,8.82,0,5.02-3.97,9.06-11.34,9.06-3.99,0-8.2-1.71-11.05-4.06Z"/>
    </g>
    <g>
      <path class="cls-2" d="M365.2,130.42v-19.03h8.86v19.54c0,11.56-5.84,16.33-14.95,16.33s-14.95-4.77-14.95-16.33v-10.74c0-1.51-.44-2.07-2.01-2.07h-1.32v-6.35s2.51-.38,4.96-.38c4.59,0,7.22,1.57,7.22,7.48v11.56c0,5.91,1.38,9.42,6.09,9.42s6.09-3.52,6.09-9.42Z"/>
      <path class="cls-2" d="M351.95,100.58c0-4.4,2.83-7.1,7.1-7.1s7.1,2.7,7.1,7.1-2.89,7.1-7.1,7.1-7.1-2.7-7.1-7.1ZM359.05,103.53c1.26,0,2.39-.75,2.39-2.95s-1.13-2.95-2.39-2.95-2.39.75-2.39,2.95,1.13,2.95,2.39,2.95Z"/>
      <path class="cls-2" d="M416.41,125.21v22.05h-8.86c-5.91,0-8.42-12.06-13.26-12.06-1.51,0-2.58.94-2.58,2.76,0,2.26.75,3.71,3.58,3.71v5.15c-6.28,1.38-12.12-.69-12.12-8.86,0-4.4,2.64-9.36,9.36-9.36,10.11,0,12.69,11.94,15.01,11.94v-15.33c0-4.02-.94-7.22-7.79-7.22-2.76,0-7.73.31-7.73,5.59h-8.86c0-7.48,4.96-12.13,16.58-12.13,13.19,0,16.65,6.22,16.65,13.76Z"/>
      <path class="cls-2" d="M412.83,101.15c0,3.83-2.39,6.16-2.39,6.16h-5.21s1.07-1.76,1.07-3.77c0-3.08-2.58-4.9-6.66-4.9s-6.66,1.82-6.66,4.9c0,2.01,1.13,3.77,1.13,3.77h-5.21s-2.45-2.32-2.45-6.16c0-4.46,3.58-9.17,13.19-9.17s13.19,4.71,13.19,9.17Z"/>
      <path class="cls-2" d="M434.88,128.6c10.18,0,12.75,11.94,15.08,11.94v-14.13c0-1.13-.13-2.14-.25-3.14-2.7,2.26-6.47,3.14-10.49,3.14-8.67,0-13.69-2.83-13.69-7.29,0-5.53,5.4-7.6,14.2-7.6,5.4,0,8.67,1.19,8.67,1.19,1.76,0,2.26-2.2,2.26-3.96v-2.45h8.86v1.63c0,5.03-3.02,7.41-6.09,7.41v.31c3.02,1.57,5.4,4.52,5.4,10.74v20.86h-8.86c-5.91,0-8.42-12.06-13.26-12.06-1.51,0-2.58.94-2.58,2.76,0,2.26.69,3.71,3.58,3.71v5.15c-6.28,1.38-12.19-.69-12.19-8.86,0-4.4,2.7-9.36,9.36-9.36ZM447.19,118.68c-1.57-1.19-4.02-1.88-7.48-1.88-2.2,0-5.53.19-5.53,2.32,0,1.7,2.2,2.39,5.03,2.39,4.52,0,6.78-1.13,7.98-2.83Z"/>
      <path class="cls-2" d="M443.36,96.94h16.08v7.41h-20.1c-3.08,0-5.53-1.57-5.53-6.6v-3.77h7.73v1.13c0,1.38.5,1.82,1.82,1.82Z"/>
      <path class="cls-2" d="M498.45,127.85v18.91h-8.86v-18.34c0-5.97-1.32-9.42-6.09-9.42s-6.03,3.46-6.03,9.42v4.21c0,7.79,3.14,8.1,6.22,8.1v6.28c-8.73,1.57-15.08-1.13-15.08-14.39v-4.77c0-11.56,5.78-16.27,14.89-16.27s14.95,4.71,14.95,16.27Z"/>
      <path class="cls-2" d="M549.22,136.08h-16.33l-3.27,10.68h-10.24l15.83-45.04h11.62l15.89,45.04h-10.24l-3.27-10.68ZM542.87,114.97c-.33-1.09-.67-2.2-1-3.33s-.61-2.12-.82-2.95c-.21.84-.49,1.87-.85,3.11-.36,1.24-.69,2.41-1,3.52s-.55,1.89-.72,2.36l-3.2,10.43h11.68l-3.27-10.43c-.21-.71-.48-1.61-.82-2.7Z"/>
      <path class="cls-2" d="M600.67,121.57v23.24c-2.35.8-4.78,1.42-7.32,1.88-2.53.46-5.41.69-8.64.69-6.7,0-11.85-1.97-15.45-5.91-3.6-3.94-5.4-9.67-5.4-17.21,0-4.69.91-8.75,2.73-12.19,1.82-3.43,4.47-6.09,7.95-7.98,3.48-1.88,7.73-2.83,12.75-2.83,2.39,0,4.73.25,7.04.75,2.3.5,4.4,1.17,6.28,2.01l-3.14,7.6c-1.38-.71-2.95-1.3-4.71-1.76s-3.6-.69-5.53-.69c-2.76,0-5.16.63-7.19,1.88s-3.6,3.03-4.71,5.31c-1.11,2.28-1.66,4.97-1.66,8.07,0,2.93.4,5.53,1.19,7.79.8,2.26,2.05,4.03,3.77,5.31,1.72,1.28,3.96,1.92,6.72,1.92,1.34,0,2.48-.06,3.42-.19.94-.13,1.81-.27,2.61-.44v-9.36h-8.48v-7.92h17.78Z"/>
      <path class="cls-2" d="M611.35,101.9h9.49v37h18.22v7.85h-27.7v-44.85Z"/>
      <path class="cls-2" d="M683.79,130.42v-28.14h8.86v28.65c0,11.56-5.84,16.33-14.95,16.33s-14.95-4.77-14.95-16.33v-10.74c0-1.51-.44-2.07-2.01-2.07h-1.32v-6.35s2.51-.38,4.96-.38c4.59,0,7.22,1.57,7.22,7.48v11.56c0,5.91,1.38,9.42,6.09,9.42s6.09-3.52,6.09-9.42Z"/>
      <path class="cls-2" d="M700.25,115.72h7.29c-.69,2.7.44,4.33,2.39,4.33h6.66v7.1h-7.1c-7.29,0-11.18-3.96-9.23-11.43ZM707.53,131.93c-.69,2.7.44,4.33,2.39,4.33h6.66v7.1h-7.1c-7.29,0-11.18-3.96-9.23-11.43h7.29Z"/>
      <path class="cls-2" d="M756.1,123.39v23.37h-8.48v-22.49c0-3.39-1.51-5.72-5.34-5.72-4.02,0-7.1,3.14-7.1,6.91v13.82c0,5.91-3.33,7.48-7.92,7.48h-3.58v-6.78h.57c1.57,0,2.45-.57,2.45-2.07v-16.71c0-1.51-.88-2.07-2.45-2.07h-.57v-6.72h3.58c4.59,0,7.04,2.14,7.04,5.97v.69h.5c1.19-3.46,4.65-7.48,10.37-7.48,6.91,0,10.93,4.21,10.93,11.81Z"/>
      <path class="cls-2" d="M742.91,99.33h16.08v7.41h-20.1c-3.08,0-5.53-1.57-5.53-6.6v-3.77h7.73v1.13c0,1.38.5,1.82,1.82,1.82Z"/>
      <path class="cls-2" d="M786.51,134.88v-23.18h8.48v24.06c0,7.54-4.02,11.81-10.93,11.81-5.72,0-9.17-4.02-10.37-7.48h-.5c0,4.65-2.45,6.66-7.04,6.66h-3.58v-6.78h.57c1.57,0,2.45-.5,2.45-2.01v-17.4c0-1.51-.88-2.07-2.45-2.07h-.57v-6.79h3.58c4.59,0,7.92,1.57,7.92,7.54v14.45c0,3.83,3.08,6.91,7.1,6.91s5.34-2.39,5.34-5.72Z"/>
      <path class="cls-2" d="M820.06,140.48v6.78c-9.17,0-15.14-2.07-15.14-14.39v-16.4c0-1.76-1.19-2.76-2.95-2.76v-5.78c1.38-.57,2.51-1.76,2.51-3.71,0-3.02-2.7-4.08-4.9-4.08v-4.9c7.04,0,13.51,2.64,13.51,8.86,0,4.21-3.58,6.41-5.4,6.66v.25c3.14,0,6.09,2.01,6.09,6.28v15.58c0,7.85,3.64,7.6,6.28,7.6Z"/>
      <path class="cls-2" d="M853.93,133.13v-21.74h8.86v20.79c0,10.18-4.08,15.08-11.37,15.08-3.52,0-6.09-1.45-7.22-3.52h-.57c-1.19,2.07-3.77,3.52-7.1,3.52-7.48,0-13.57-5.15-11.56-15.08.94-4.52,3.39-8.54,3.39-12,0-3.14-3.39-2.76-3.39-2.76v-5.65c10.43-1.57,12.25,2.95,12.25,7.1,0,4.52-2.7,10.68-3.39,14.26-.82,4.08.5,6.72,3.08,6.72,2.39,0,3.14-2.39,3.14-5.65v-9.17h7.66v9.17c0,3.27.75,5.65,3.14,5.65,2.58,0,3.08-2.58,3.08-6.72Z"/>
      <path class="cls-2" d="M905.12,125.21v22.05h-8.86c-5.91,0-8.42-12.06-13.26-12.06-1.51,0-2.58.94-2.58,2.76,0,2.26.75,3.71,3.58,3.71v5.15c-6.28,1.38-12.12-.69-12.12-8.86,0-4.4,2.64-9.36,9.36-9.36,10.11,0,12.69,11.94,15.01,11.94v-15.33c0-4.02-.94-7.22-7.79-7.22-2.76,0-7.73.31-7.73,5.59h-8.86c0-7.48,4.96-12.13,16.58-12.13,13.19,0,16.65,6.22,16.65,13.76Z"/>
      <path class="cls-2" d="M926.23,122.01v24.75h-8.86v-24.75c0-4.27-3.2-4.52-7.04-4.27v-6.28c9.49-1.88,15.89.82,15.89,10.55Z"/>
      <path class="cls-2" d="M964.3,126.15v6.41c0,9.05-5.91,14.7-14.7,14.7-7.85,0-13.69-3.58-14.26-11.94h8.73c.63,3.77,2.89,4.77,5.53,4.77,3.2,0,6.16-1.95,6.16-7.54v-6.41c0-5.59-2.95-7.66-6.16-7.66-2.64,0-4.9,1.07-5.53,4.9h-8.73c.57-8.42,6.41-12,14.26-12,8.8,0,14.7,5.65,14.7,14.76Z"/>
    </g>
  </g>
  <g>
    <path class="cls-3" d="M150.57,32.22L45.46,110.34c-8.56,6.36-12.01,17.54-8.53,27.63l41.89,121.12c3.41,9.85,12.69,16.46,23.12,16.46h126.3c10.42,0,19.69-6.6,23.11-16.44l42.02-121.13c3.5-10.09.05-21.28-8.52-27.65l-105.1-78.12c-8.66-6.44-20.52-6.44-29.18,0Z"/>
    <g>
      <polygon class="cls-1" points="109.67 133.95 150.07 216.83 138.27 216.83 116.45 173.46 93.26 216.82 86.24 216.82 112.92 165.86 110.88 161.88 81.6 216.83 66.73 216.83 109.67 133.95"/>
      <path class="cls-1" d="M207.83,169.25v37.81c-3.19,3.03-7.24,5.38-12.14,7.06-4.91,1.68-10.31,2.51-16.21,2.51-7.82,0-14.78-1.71-20.88-5.14-6.1-3.43-10.87-8.26-14.3-14.48-3.43-6.22-5.14-13.44-5.14-21.66s1.71-15.45,5.14-21.72c3.43-6.26,8.2-11.11,14.3-14.54,6.1-3.43,13.06-5.14,20.88-5.14,5.18,0,9.99.66,14.42,1.97,4.43,1.32,8.27,3.17,11.55,5.56l-4.43,14.6c-2.87-2.23-6.1-3.95-9.69-5.14s-7.3-1.79-11.13-1.79c-7.5,0-13.5,2.37-18.01,7.12-4.51,4.75-6.76,11.11-6.76,19.08s2.25,14.32,6.76,19.02c4.51,4.71,10.51,7.06,18.01,7.06,3.99,0,7.78-.72,11.37-2.15v-14.72h-14.36v-15.32h30.63Z"/>
      <path class="cls-1" d="M213.57,135.39h16.27v64.61h33.74v15.2h-50.01v-79.81Z"/>
    </g>
    <g>
      <path class="cls-1" d="M150.22,75.49c1.63,1.61,3.14,3.11,4.97,4.92-1.25,1.11-2.53,2.17-3.71,3.33-2.75,2.69-5.4,5.49-8.19,8.14-3.01,2.86-7.44,3.47-11.17,1.69-3.71-1.77-5.91-5.52-5.7-9.76.19-3.95,2.82-7.45,6.62-8.83,4.45-1.62,9.23.04,12.21,4.2-1.51,1.5-3,2.99-4.92,4.89-.4-.58-.78-1.33-1.35-1.89-1.55-1.51-3.64-1.49-4.99-.05-1.24,1.32-1.23,3.38,0,4.68,1.4,1.46,3.44,1.48,4.99-.06,3.74-3.71,7.44-7.46,11.22-11.26Z"/>
      <path class="cls-1" d="M184.99,89.8c1.52-1.54,3.01-3.04,4.97-5.03.45.66.82,1.49,1.42,2.06,1.53,1.46,3.51,1.4,4.87-.02,1.3-1.35,1.27-3.48-.06-4.78-1.37-1.34-3.42-1.35-4.9.12-3.74,3.7-7.43,7.46-11.08,11.14-1.57-1.63-3.05-3.17-4.78-4.97.71-.64,1.7-1.49,2.62-2.4,2.88-2.85,5.71-5.74,8.61-8.58,3.22-3.16,7.83-3.85,11.78-1.82,3.72,1.91,5.95,6.18,5.35,10.23-.68,4.53-3.88,7.94-8.36,8.66-4.48.73-7.81-1.3-10.45-4.61Z"/>
      <path class="cls-1" d="M165.64,109.06c1.73-1.74,3.22-3.24,5.17-5.19.45.67.8,1.44,1.37,1.99,1.52,1.49,3.5,1.51,4.88.18,1.43-1.38,1.44-3.45-.09-5-3.48-3.53-7-7.02-10.5-10.53-.21-.21-.41-.44-.47-.51,1.52-1.57,3.01-3.12,4.57-4.73.2.17.54.45.86.77,3.4,3.4,6.81,6.78,10.19,10.2,4.14,4.17,4.24,10.42.28,14.44-4.02,4.08-10.29,4-14.55-.17-.54-.52-1.15-.97-1.7-1.44Z"/>
      <path class="cls-1" d="M164.45,59.93c-1.63,1.64-3.12,3.14-4.98,5-.47-.63-.89-1.41-1.51-1.99-1.45-1.36-3.45-1.32-4.78-.02-1.36,1.34-1.38,3.43.06,4.9,3.37,3.43,6.79,6.82,10.19,10.22.35.35.69.73,1,1.06-1.57,1.54-3.08,3.02-4.66,4.56.04.02-.13-.01-.22-.11-3.8-3.79-7.66-7.53-11.37-11.4-3.64-3.8-3.57-9.79,0-13.67,3.48-3.79,9.46-4.32,13.52-1.15.99.77,1.84,1.72,2.75,2.59Z"/>
      <path class="cls-1" d="M173.65,99.11c-3.98,4.14-7.97,8.44-12.15,12.54-.97.95-2.56,1.44-3.96,1.75-4.23.94-8.52-1.03-10.65-4.7-2.16-3.73-1.79-8.36,1-11.64.72-.84,1.55-1.59,2.3-2.35,1.54,1.58,3.04,3.13,4.85,4.99-.48.36-1.2.78-1.75,1.35-1.45,1.5-1.48,3.53-.15,4.9,1.4,1.44,3.44,1.43,5-.11,3.5-3.45,6.95-6.94,10.43-10.42.25-.25.52-.48.68-.63,1.56,1.54,3.1,3.05,4.39,4.33Z"/>
      <path class="cls-1" d="M180.2,74.37c-1.74-1.73-3.23-3.22-4.82-4.81.33-.35.69-.76,1.07-1.14,1.94-1.94,2.19-3.89.69-5.45-1.52-1.57-3.56-1.35-5.56.63-3.23,3.22-6.45,6.45-9.67,9.67-.32.32-.66.62-.95.89-1.49-1.57-2.95-3.09-4.54-4.76.11-.12.42-.49.76-.83,3.4-3.41,6.79-6.82,10.21-10.21,4.14-4.1,10.46-4.15,14.45-.13,3.96,3.99,3.91,10.2-.11,14.34-.53.54-.99,1.15-1.53,1.78Z"/>
      <path class="cls-1" d="M169.64,75.82c1.31,1.33,2.8,2.83,4.22,4.27-4.34,4.34-8.71,8.72-13.14,13.15-1.36-1.46-2.79-3-4.14-4.45,4.24-4.21,8.63-8.57,13.07-12.97Z"/>
      <path class="cls-1" d="M166.07,70.45c1.34-1.37,2.82-2.88,4.22-4.32,4.4,4.39,8.78,8.77,13.16,13.14-1.44,1.42-2.95,2.9-4.4,4.33-4.28-4.34-8.63-8.74-12.98-13.15Z"/>
      <path class="cls-1" d="M164.28,98.28c-1.47,1.49-2.95,2.98-4.36,4.42-4.3-4.32-8.64-8.68-12.88-12.94,1.38-1.37,2.9-2.88,4.35-4.32,4.19,4.18,8.55,8.52,12.89,12.85Z"/>
    </g>
  </g>
</svg>