<?xml version="1.0" encoding="UTF-8"?>
<svg id="Layer_1" data-name="Layer 1" xmlns="http://www.w3.org/2000/svg" viewBox="0 0 500 500">
  <defs>
    <style>
      .cls-1 {
        fill: #fff;
      }

      .cls-2 {
        fill: #09f;
        fill-rule: evenodd;
      }
    </style>
  </defs>
  <path class="cls-2" d="M229.85,85.24l-145.23,107.94c-11.83,8.79-16.6,24.24-11.78,38.17l57.88,167.34c4.71,13.61,17.53,22.75,31.94,22.75h174.5c14.4,0,27.21-9.12,31.93-22.72l58.05-167.36c4.83-13.94.07-29.4-11.77-38.2l-145.2-107.92c-11.97-8.9-28.35-8.9-40.32,0Z"/>
  <g>
    <polygon class="cls-1" points="173.34 225.79 229.16 340.3 212.85 340.3 182.7 280.38 150.67 340.28 140.97 340.28 177.83 269.88 175.02 264.38 134.56 340.29 114.01 340.29 173.34 225.79"/>
    <path class="cls-1" d="M308.96,274.56v52.24c-4.41,4.19-10,7.44-16.78,9.75-6.78,2.31-14.25,3.47-22.4,3.47-10.8,0-20.42-2.37-28.85-7.11-8.43-4.74-15.02-11.41-19.75-20-4.74-8.6-7.11-18.57-7.11-29.92s2.37-21.35,7.11-30c4.74-8.65,11.32-15.35,19.75-20.08,8.43-4.74,18.04-7.11,28.85-7.11,7.16,0,13.8.91,19.92,2.73,6.11,1.82,11.43,4.38,15.95,7.69l-6.12,20.17c-3.97-3.08-8.43-5.46-13.39-7.11-4.96-1.65-10.08-2.48-15.37-2.48-10.36,0-18.65,3.28-24.88,9.84-6.23,6.56-9.34,15.35-9.34,26.37s3.11,19.78,9.34,26.28c6.22,6.5,14.52,9.75,24.88,9.75,5.51,0,10.74-.99,15.7-2.98v-20.33h-19.84v-21.16h42.32Z"/>
    <path class="cls-1" d="M316.89,227.78h22.48v89.27h46.62v20.99h-69.1v-110.26Z"/>
  </g>
  <g>
    <path class="cls-1" d="M229.36,145.02c2.26,2.23,4.34,4.29,6.87,6.79-1.72,1.54-3.49,3-5.12,4.6-3.8,3.72-7.47,7.58-11.32,11.25-4.15,3.95-10.28,4.79-15.43,2.34-5.13-2.44-8.16-7.62-7.87-13.48.26-5.45,3.89-10.29,9.15-12.21,6.15-2.24,12.75.05,16.87,5.8-2.08,2.07-4.15,4.13-6.79,6.75-.56-.8-1.08-1.84-1.86-2.61-2.14-2.09-5.03-2.06-6.9-.07-1.71,1.82-1.71,4.67.01,6.47,1.93,2.02,4.75,2.05,6.9-.09,5.17-5.12,10.27-10.31,15.5-15.56Z"/>
    <path class="cls-1" d="M277.4,164.79c2.11-2.13,4.15-4.2,6.87-6.95.62.92,1.13,2.05,1.97,2.85,2.11,2.02,4.84,1.94,6.73-.03,1.79-1.87,1.75-4.81-.09-6.61-1.89-1.85-4.72-1.86-6.77.16-5.17,5.12-10.26,10.31-15.3,15.39-2.16-2.25-4.21-4.38-6.6-6.86.98-.89,2.35-2.06,3.62-3.32,3.98-3.93,7.89-7.94,11.89-11.85,4.45-4.36,10.82-5.31,16.28-2.51,5.15,2.64,8.23,8.54,7.39,14.14-.94,6.26-5.36,10.97-11.55,11.97-6.19,1-10.78-1.79-14.44-6.37Z"/>
    <path class="cls-1" d="M250.66,191.4c2.39-2.41,4.45-4.47,7.14-7.17.62.92,1.11,1.98,1.89,2.75,2.09,2.05,4.84,2.09,6.75.25,1.98-1.91,1.98-4.76-.13-6.91-4.8-4.88-9.67-9.71-14.51-14.55-.29-.29-.57-.61-.65-.71,2.09-2.17,4.15-4.31,6.31-6.54.27.24.75.63,1.18,1.06,4.7,4.69,9.41,9.37,14.08,14.09,5.71,5.77,5.86,14.39.38,19.95-5.55,5.64-14.22,5.53-20.1-.23-.74-.73-1.58-1.35-2.34-1.98Z"/>
    <path class="cls-1" d="M249.03,123.52c-2.26,2.27-4.31,4.33-6.88,6.91-.65-.87-1.23-1.95-2.08-2.75-2.01-1.88-4.77-1.83-6.6-.02-1.88,1.85-1.91,4.74.08,6.76,4.66,4.74,9.39,9.42,14.08,14.12.49.49.95,1,1.38,1.46-2.17,2.13-4.25,4.17-6.43,6.3.05.02-.17-.02-.31-.15-5.25-5.24-10.58-10.4-15.71-15.75-5.03-5.25-4.93-13.52,0-18.88,4.81-5.23,13.06-5.97,18.68-1.58,1.37,1.07,2.54,2.38,3.8,3.57Z"/>
    <path class="cls-1" d="M261.74,177.66c-5.49,5.72-11.01,11.66-16.79,17.33-1.34,1.31-3.54,1.99-5.47,2.42-5.84,1.3-11.77-1.43-14.71-6.5-2.99-5.15-2.47-11.55,1.38-16.08.99-1.17,2.14-2.19,3.18-3.25,2.13,2.19,4.2,4.32,6.7,6.89-.66.5-1.66,1.08-2.42,1.87-2.01,2.07-2.04,4.88-.21,6.76,1.94,1.98,4.75,1.98,6.91-.16,4.83-4.77,9.61-9.59,14.41-14.39.34-.34.71-.66.94-.88,2.16,2.13,4.28,4.21,6.07,5.98Z"/>
    <path class="cls-1" d="M270.79,143.47c-2.4-2.4-4.46-4.45-6.66-6.64.46-.49.95-1.05,1.48-1.58,2.68-2.68,3.02-5.38.95-7.52-2.1-2.18-4.92-1.87-7.68.88-4.46,4.45-8.91,8.91-13.36,13.36-.44.44-.91.85-1.31,1.23-2.06-2.17-4.08-4.27-6.28-6.58.15-.17.58-.68,1.05-1.15,4.7-4.71,9.38-9.42,14.11-14.1,5.72-5.66,14.45-5.73,19.96-.18,5.48,5.51,5.41,14.1-.15,19.82-.73.75-1.37,1.59-2.12,2.46Z"/>
    <path class="cls-1" d="M256.2,145.48c1.81,1.83,3.87,3.91,5.83,5.9-5.99,5.99-12.04,12.05-18.15,18.17-1.88-2.01-3.86-4.14-5.72-6.14,5.86-5.81,11.92-11.84,18.05-17.92Z"/>
    <path class="cls-1" d="M251.27,138.06c1.85-1.89,3.89-3.98,5.83-5.97,6.07,6.06,12.13,12.12,18.18,18.15-1.99,1.96-4.07,4-6.08,5.98-5.92-5.99-11.92-12.07-17.94-18.16Z"/>
    <path class="cls-1" d="M248.79,176.51c-2.03,2.05-4.07,4.12-6.03,6.1-5.94-5.97-11.93-11.99-17.79-17.88,1.91-1.9,4-3.98,6.01-5.97,5.79,5.77,11.82,11.77,17.81,17.75Z"/>
  </g>
</svg>