<?xml version="1.0" encoding="UTF-8"?>
<svg id="Layer_1" data-name="Layer 1" xmlns="http://www.w3.org/2000/svg" viewBox="0 0 500 500">
  <defs>
    <style>
      .cls-1 {
        fill: #fff;
        fill-rule: evenodd;
      }
    </style>
  </defs>
  <path class="cls-1" d="M416.52,192.77l-146.21-108.67c-12.05-8.96-28.55-8.96-40.6,0l-146.23,108.69c-11.91,8.85-16.71,24.41-11.86,38.43l58.28,168.51c4.74,13.71,17.65,22.91,32.16,22.91h175.71c14.5,0,27.4-9.18,32.15-22.88l58.46-168.52c4.87-14.03.07-29.6-11.85-38.46ZM296.32,144.32c5.18,2.66,8.28,8.6,7.44,14.24-.94,6.31-5.4,11.04-11.63,12.05-6.23,1.01-10.86-1.81-14.54-6.41,2.12-2.15,4.18-4.23,6.92-7,.62.92,1.14,2.07,1.98,2.87,2.13,2.03,4.88,1.95,6.78-.03,1.81-1.88,1.77-4.84-.09-6.66-1.9-1.86-4.76-1.87-6.81.16-5.2,5.15-10.33,10.38-15.41,15.49-2.18-2.27-4.24-4.41-6.64-6.91.98-.9,2.36-2.07,3.65-3.34,4.01-3.96,7.95-7.99,11.97-11.94,4.48-4.39,10.9-5.35,16.39-2.53ZM256.24,144.76c1.83,1.85,3.89,3.94,5.87,5.94-6.03,6.04-12.12,12.13-18.28,18.29-1.89-2.03-3.89-4.17-5.76-6.19,5.9-5.85,12.01-11.92,18.18-18.04ZM251.28,137.28c1.86-1.9,3.92-4.01,5.87-6.01,6.12,6.11,12.22,12.2,18.31,18.28-2,1.97-4.1,4.03-6.12,6.02-5.96-6.03-12.01-12.16-18.06-18.29ZM248.78,176c-2.04,2.07-4.1,4.15-6.07,6.15-5.98-6.01-12.02-12.08-17.92-18,1.92-1.91,4.03-4.01,6.05-6.01,5.83,5.81,11.9,11.86,17.94,17.87ZM225.98,174.3c1-1.17,2.16-2.21,3.2-3.27,2.14,2.2,4.23,4.35,6.74,6.94-.67.51-1.67,1.08-2.44,1.88-2.02,2.09-2.06,4.92-.21,6.81,1.95,2,4.78,1.99,6.96-.16,4.87-4.8,9.68-9.66,14.51-14.49.35-.35.72-.67.95-.88,2.18,2.14,4.31,4.24,6.11,6.02-5.53,5.76-11.08,11.74-16.91,17.45-1.35,1.32-3.57,2.01-5.51,2.44-5.88,1.31-11.85-1.44-14.81-6.54-3.01-5.19-2.48-11.63,1.39-16.19ZM257.86,183.77c.62.93,1.12,2,1.91,2.77,2.11,2.07,4.87,2.11,6.79.25,1.99-1.92,2-4.79-.13-6.96-4.84-4.92-9.74-9.77-14.61-14.66-.3-.3-.57-.62-.66-.72,2.11-2.19,4.18-4.34,6.35-6.59.27.24.76.63,1.19,1.07,4.73,4.72,9.47,9.44,14.18,14.19,5.75,5.81,5.9,14.49.39,20.09-5.59,5.68-14.31,5.56-20.24-.23-.75-.73-1.59-1.35-2.36-2,2.41-2.42,4.48-4.5,7.19-7.22ZM253.11,120.48c5.76-5.7,14.55-5.77,20.1-.18,5.52,5.55,5.44,14.2-.15,19.96-.74.76-1.38,1.6-2.13,2.48-2.42-2.41-4.5-4.48-6.71-6.69.46-.49.96-1.05,1.49-1.59,2.7-2.7,3.04-5.42.96-7.58-2.12-2.19-4.96-1.88-7.73.88-4.49,4.48-8.97,8.97-13.46,13.45-.44.44-.91.86-1.32,1.24-2.08-2.18-4.1-4.3-6.32-6.63.15-.17.59-.68,1.06-1.15,4.73-4.74,9.45-9.49,14.21-14.2ZM226.39,120.64c4.84-5.27,13.15-6.01,18.81-1.59,1.38,1.07,2.56,2.39,3.83,3.6-2.27,2.28-4.34,4.36-6.93,6.96-.65-.88-1.24-1.96-2.1-2.77-2.02-1.9-4.81-1.84-6.65-.02-1.89,1.87-1.92,4.77.08,6.81,4.69,4.77,9.45,9.48,14.18,14.22.49.49.95,1.01,1.39,1.47-2.18,2.14-4.28,4.2-6.48,6.35.05.02-.17-.02-.31-.15-5.29-5.27-10.66-10.47-15.82-15.86-5.06-5.28-4.96-13.61,0-19.02ZM196.12,155.86c.27-5.49,3.92-10.36,9.21-12.29,6.19-2.25,12.84.05,16.99,5.84-2.09,2.08-4.18,4.16-6.84,6.8-.56-.8-1.08-1.85-1.88-2.62-2.15-2.1-5.06-2.07-6.95-.07-1.72,1.83-1.72,4.7.01,6.51,1.94,2.03,4.78,2.06,6.95-.09,5.2-5.16,10.35-10.38,15.6-15.66,2.27,2.25,4.37,4.32,6.92,6.84-1.73,1.55-3.51,3.02-5.16,4.63-3.83,3.75-7.52,7.63-11.4,11.32-4.18,3.98-10.35,4.82-15.53,2.36-5.17-2.46-8.22-7.68-7.93-13.58ZM212.6,340.93l-30.36-60.33-32.25,60.32h-9.77l37.12-70.89-2.83-5.53-40.74,76.44h-20.69l59.75-115.29,56.21,115.3h-16.42ZM309.37,327.33c-4.44,4.22-10.07,7.49-16.89,9.82-6.83,2.33-14.34,3.49-22.55,3.49-10.88,0-20.56-2.38-29.05-7.16-8.49-4.77-15.12-11.49-19.89-20.14-4.77-8.66-7.16-18.7-7.16-30.13s2.38-21.5,7.16-30.21c4.77-8.71,11.4-15.45,19.89-20.22,8.49-4.77,18.17-7.16,29.05-7.16,7.21,0,13.9.92,20.06,2.75,6.16,1.83,11.51,4.41,16.06,7.74l-6.16,20.31c-3.99-3.11-8.49-5.49-13.48-7.16-4.99-1.66-10.15-2.5-15.48-2.5-10.43,0-18.78,3.3-25.05,9.9-6.27,6.6-9.4,15.45-9.4,26.55s3.13,19.92,9.4,26.47c6.27,6.55,14.62,9.82,25.05,9.82,5.55,0,10.82-1,15.81-3v-20.47h-19.98v-21.31h42.61v52.6ZM386.94,338.65h-69.58v-111.03h22.64v89.89h46.94v21.14Z"/>
</svg>