<?xml version="1.0" encoding="UTF-8"?>
<svg id="Layer_1" data-name="Layer 1" xmlns="http://www.w3.org/2000/svg" viewBox="0 0 500 500">
  <defs>
    <style>
      .cls-1 {
        fill: #fff;
      }

      .cls-2, .cls-3 {
        fill: #09f;
      }

      .cls-3 {
        fill-rule: evenodd;
      }
    </style>
  </defs>
  <g>
    <path class="cls-3" d="M229.52,38.05l-145.23,107.94c-11.83,8.79-16.6,24.24-11.78,38.17l57.88,167.34c4.71,13.61,17.53,22.75,31.94,22.75h174.5c14.4,0,27.21-9.12,31.93-22.72l58.05-167.36c4.83-13.94.07-29.4-11.77-38.2l-145.2-107.92c-11.97-8.9-28.35-8.9-40.32,0Z"/>
    <g>
      <polygon class="cls-1" points="173.01 178.61 228.83 293.11 212.52 293.11 182.37 233.19 150.34 293.09 140.64 293.09 177.5 222.69 174.68 217.2 134.23 293.1 113.68 293.1 173.01 178.61"/>
      <path class="cls-1" d="M308.62,227.37v52.24c-4.41,4.19-10,7.44-16.78,9.75-6.78,2.31-14.25,3.47-22.4,3.47-10.8,0-20.42-2.37-28.85-7.11-8.43-4.74-15.02-11.41-19.75-20-4.74-8.6-7.11-18.57-7.11-29.92s2.37-21.35,7.11-30c4.74-8.65,11.32-15.35,19.75-20.08,8.43-4.74,18.04-7.11,28.85-7.11,7.16,0,13.8.91,19.92,2.73,6.11,1.82,11.43,4.38,15.95,7.69l-6.12,20.17c-3.97-3.08-8.43-5.46-13.39-7.11-4.96-1.65-10.08-2.48-15.37-2.48-10.36,0-18.65,3.28-24.88,9.84-6.23,6.56-9.34,15.35-9.34,26.37s3.11,19.78,9.34,26.28c6.22,6.5,14.52,9.75,24.88,9.75,5.51,0,10.74-.99,15.7-2.98v-20.33h-19.84v-21.16h42.32Z"/>
      <path class="cls-1" d="M316.56,180.59h22.48v89.27h46.62v20.99h-69.1v-110.26Z"/>
    </g>
    <g>
      <path class="cls-1" d="M229.03,97.83c2.26,2.23,4.34,4.29,6.87,6.79-1.72,1.54-3.49,3-5.12,4.6-3.8,3.72-7.47,7.58-11.32,11.25-4.15,3.95-10.28,4.79-15.43,2.34-5.13-2.44-8.16-7.62-7.87-13.48.26-5.45,3.89-10.29,9.15-12.21,6.15-2.24,12.75.05,16.87,5.8-2.08,2.07-4.15,4.13-6.79,6.75-.56-.8-1.08-1.84-1.86-2.61-2.14-2.09-5.03-2.06-6.9-.07-1.71,1.82-1.71,4.67.01,6.47,1.93,2.02,4.75,2.05,6.9-.09,5.17-5.12,10.27-10.31,15.5-15.56Z"/>
      <path class="cls-1" d="M277.07,117.61c2.11-2.13,4.15-4.2,6.87-6.95.62.92,1.13,2.05,1.97,2.85,2.11,2.02,4.84,1.94,6.73-.03,1.79-1.87,1.75-4.81-.09-6.61-1.89-1.85-4.72-1.86-6.77.16-5.17,5.12-10.26,10.31-15.3,15.39-2.16-2.25-4.21-4.38-6.6-6.86.98-.89,2.35-2.06,3.62-3.32,3.98-3.93,7.89-7.94,11.89-11.85,4.45-4.36,10.82-5.31,16.28-2.51,5.15,2.64,8.23,8.54,7.39,14.14-.94,6.26-5.36,10.97-11.55,11.97-6.19,1-10.78-1.79-14.44-6.37Z"/>
      <path class="cls-1" d="M250.33,144.21c2.39-2.41,4.45-4.47,7.14-7.17.62.92,1.11,1.98,1.89,2.75,2.09,2.05,4.84,2.09,6.75.25,1.98-1.91,1.98-4.76-.13-6.91-4.8-4.88-9.67-9.71-14.51-14.55-.29-.29-.57-.61-.65-.71,2.09-2.17,4.15-4.31,6.31-6.54.27.24.75.63,1.18,1.06,4.7,4.69,9.41,9.37,14.08,14.09,5.71,5.77,5.86,14.39.38,19.95-5.55,5.64-14.22,5.53-20.1-.23-.74-.73-1.58-1.35-2.34-1.98Z"/>
      <path class="cls-1" d="M248.7,76.34c-2.26,2.27-4.31,4.33-6.88,6.91-.65-.87-1.23-1.95-2.08-2.75-2.01-1.88-4.77-1.83-6.6-.02-1.88,1.85-1.91,4.74.08,6.76,4.66,4.74,9.39,9.42,14.08,14.12.49.49.95,1,1.38,1.46-2.17,2.13-4.25,4.17-6.43,6.3.05.02-.17-.02-.31-.15-5.25-5.24-10.58-10.4-15.71-15.75-5.03-5.25-4.93-13.52,0-18.88,4.81-5.23,13.06-5.97,18.68-1.58,1.37,1.07,2.54,2.38,3.8,3.57Z"/>
      <path class="cls-1" d="M261.41,130.47c-5.49,5.72-11.01,11.66-16.79,17.33-1.34,1.31-3.54,1.99-5.47,2.42-5.84,1.3-11.77-1.43-14.71-6.5-2.99-5.15-2.47-11.55,1.38-16.08.99-1.17,2.14-2.19,3.18-3.25,2.13,2.19,4.2,4.32,6.7,6.89-.66.5-1.66,1.08-2.42,1.87-2.01,2.07-2.04,4.88-.21,6.76,1.94,1.98,4.75,1.98,6.91-.16,4.83-4.77,9.61-9.59,14.41-14.39.34-.34.71-.66.94-.88,2.16,2.13,4.28,4.21,6.07,5.98Z"/>
      <path class="cls-1" d="M270.46,96.28c-2.4-2.4-4.46-4.45-6.66-6.64.46-.49.95-1.05,1.48-1.58,2.68-2.68,3.02-5.38.95-7.52-2.1-2.18-4.92-1.87-7.68.88-4.46,4.45-8.91,8.91-13.36,13.36-.44.44-.91.85-1.31,1.23-2.06-2.17-4.08-4.27-6.28-6.58.15-.17.58-.68,1.05-1.15,4.7-4.71,9.38-9.42,14.11-14.1,5.72-5.66,14.45-5.73,19.96-.18,5.48,5.51,5.41,14.1-.15,19.82-.73.75-1.37,1.59-2.12,2.46Z"/>
      <path class="cls-1" d="M255.87,98.3c1.81,1.83,3.87,3.91,5.83,5.9-5.99,5.99-12.04,12.05-18.15,18.17-1.88-2.01-3.86-4.14-5.72-6.14,5.86-5.81,11.92-11.84,18.05-17.92Z"/>
      <path class="cls-1" d="M250.93,90.87c1.85-1.89,3.89-3.98,5.83-5.97,6.07,6.06,12.13,12.12,18.18,18.15-1.99,1.96-4.07,4-6.08,5.98-5.92-5.99-11.92-12.07-17.94-18.16Z"/>
      <path class="cls-1" d="M248.46,129.32c-2.03,2.05-4.07,4.12-6.03,6.1-5.94-5.97-11.93-11.99-17.79-17.88,1.91-1.9,4-3.98,6.01-5.97,5.79,5.77,11.82,11.77,17.81,17.75Z"/>
    </g>
  </g>
  <g>
    <path class="cls-3" d="M250.22,438.15c98.93,0,179.12.56,179.12,1.25s-80.2,1.25-179.12,1.25-179.12-.56-179.12-1.25,80.2-1.25,179.12-1.25"/>
    <g>
      <path class="cls-2" d="M78.37,445.89h4.64l7.28,22.32h-4.19l-3.4-11.88c-.71-2.36-1.37-4.91-2.02-7.36h-.14c-.61,2.47-1.27,5-1.98,7.36l-3.43,11.88h-4.04l7.28-22.32ZM75.4,459.06h10.51v3.11h-10.51v-3.11Z"/>
      <path class="cls-2" d="M91.66,466.29l1.83-2.5c1.49,1.16,2.93,1.87,4.63,1.87,1.83,0,2.69-.86,2.69-2.01,0-1.41-1.82-2.03-3.6-2.72-2.2-.83-4.71-2.09-4.71-4.89s2.35-5.01,6.1-5.01c2.33,0,4.21.95,5.57,2.01l-1.8,2.42c-1.17-.86-2.36-1.46-3.67-1.46-1.69,0-2.48.81-2.48,1.86,0,1.32,1.69,1.83,3.51,2.5,2.27.85,4.81,1.94,4.81,5.07,0,2.88-2.28,5.2-6.51,5.2-2.29,0-4.71-.98-6.35-2.33Z"/>
      <path class="cls-2" d="M106.37,466.29l1.83-2.5c1.49,1.16,2.93,1.87,4.63,1.87,1.83,0,2.69-.86,2.69-2.01,0-1.41-1.82-2.03-3.6-2.72-2.2-.83-4.71-2.09-4.71-4.89s2.35-5.01,6.1-5.01c2.33,0,4.21.95,5.57,2.01l-1.8,2.42c-1.17-.86-2.36-1.46-3.67-1.46-1.69,0-2.48.81-2.48,1.86,0,1.32,1.69,1.83,3.51,2.5,2.27.85,4.81,1.94,4.81,5.07,0,2.88-2.28,5.2-6.51,5.2-2.29,0-4.71-.98-6.35-2.33Z"/>
      <path class="cls-2" d="M122.56,461.96v-10.51h3.93v10.01c0,2.76.79,3.8,2.61,3.8,1.47,0,2.44-.68,3.71-2.32v-11.48h3.93v16.77h-3.22l-.3-2.47h-.11c-1.47,1.75-3.1,2.88-5.39,2.88-3.59,0-5.16-2.43-5.16-6.66Z"/>
      <path class="cls-2" d="M141.73,451.45h3.22l.3,2.99h.11c1.19-2.18,2.97-3.4,4.76-3.4.85,0,1.39.11,1.9.34l-.68,3.41c-.59-.16-1.02-.27-1.72-.27-1.34,0-2.95.91-3.96,3.47v10.23h-3.93v-16.77Z"/>
      <path class="cls-2" d="M152.67,463.71c0-3.59,2.98-5.46,9.86-6.2-.05-1.8-.78-3.3-3.04-3.3-1.67,0-3.24.75-4.71,1.65l-1.45-2.62c1.84-1.16,4.22-2.2,6.88-2.2,4.19,0,6.25,2.58,6.25,7.25v9.93h-3.22l-.3-1.86h-.11c-1.5,1.28-3.22,2.27-5.2,2.27-2.94,0-4.96-1.99-4.96-4.91ZM162.53,463.72v-3.77c-4.55.57-6.06,1.76-6.06,3.45,0,1.48,1.01,2.13,2.42,2.13s2.4-.67,3.65-1.82Z"/>
      <path class="cls-2" d="M171.18,451.45h3.22l.3,2.27h.11c1.5-1.46,3.21-2.68,5.5-2.68,3.59,0,5.16,2.43,5.16,6.66v10.51h-3.93v-10.01c0-2.76-.79-3.8-2.61-3.8-1.47,0-2.44.72-3.82,2.09v11.71h-3.93v-16.77Z"/>
      <path class="cls-2" d="M189.19,459.84c0-5.58,3.95-8.81,8.41-8.81,2.13,0,3.69.82,4.9,1.88l-1.91,2.55c-.89-.78-1.73-1.23-2.79-1.23-2.7,0-4.57,2.24-4.57,5.6s1.84,5.57,4.45,5.57c1.31,0,2.51-.64,3.47-1.45l1.6,2.59c-1.57,1.39-3.56,2.06-5.47,2.06-4.57,0-8.08-3.22-8.08-8.78Z"/>
      <path class="cls-2" d="M204.14,459.84c0-5.45,3.78-8.81,7.73-8.81,4.53,0,6.92,3.28,6.92,7.96,0,.75-.08,1.5-.17,1.91h-10.64c.33,2.98,2.24,4.67,4.94,4.67,1.43,0,2.66-.45,3.89-1.22l1.34,2.44c-1.6,1.08-3.62,1.82-5.75,1.82-4.63,0-8.26-3.25-8.26-8.78ZM215.39,458.23c0-2.58-1.15-4.15-3.44-4.15-1.95,0-3.67,1.46-4.01,4.15h7.45Z"/>
      <path class="cls-2" d="M220.89,466.29l1.83-2.5c1.49,1.16,2.93,1.87,4.63,1.87,1.83,0,2.69-.86,2.69-2.01,0-1.41-1.82-2.03-3.6-2.72-2.2-.83-4.71-2.09-4.71-4.89s2.35-5.01,6.1-5.01c2.33,0,4.21.95,5.57,2.01l-1.8,2.42c-1.17-.86-2.36-1.46-3.67-1.46-1.69,0-2.48.81-2.48,1.86,0,1.32,1.69,1.83,3.51,2.5,2.27.85,4.81,1.94,4.81,5.07,0,2.88-2.28,5.2-6.51,5.2-2.29,0-4.71-.98-6.35-2.33Z"/>
      <path class="cls-2" d="M243.26,457.13c0-7.3,4.63-11.65,10.57-11.65,3.17,0,5.34,1.39,6.74,2.83l-2.12,2.55c-1.12-1.09-2.43-1.94-4.51-1.94-3.96,0-6.62,3.07-6.62,8.08s2.36,8.18,6.84,8.18c1.24,0,2.47-.35,3.18-.98v-4.82h-4.2v-3.25h7.75v9.84c-1.49,1.5-4.07,2.65-7.13,2.65-6.02,0-10.51-4.11-10.51-11.5Z"/>
      <path class="cls-2" d="M264.43,459.84c0-5.45,3.78-8.81,7.73-8.81,4.53,0,6.92,3.28,6.92,7.96,0,.75-.08,1.5-.17,1.91h-10.64c.33,2.98,2.24,4.67,4.94,4.67,1.43,0,2.66-.45,3.89-1.22l1.34,2.44c-1.6,1.08-3.62,1.82-5.75,1.82-4.63,0-8.26-3.25-8.26-8.78ZM275.68,458.23c0-2.58-1.15-4.15-3.44-4.15-1.95,0-3.67,1.46-4.01,4.15h7.45Z"/>
      <path class="cls-2" d="M282.84,451.45h3.22l.3,2.27h.11c1.5-1.46,3.21-2.68,5.5-2.68,3.59,0,5.16,2.43,5.16,6.66v10.51h-3.93v-10.01c0-2.76-.79-3.8-2.61-3.8-1.47,0-2.44.72-3.82,2.09v11.71h-3.93v-16.77Z"/>
      <path class="cls-2" d="M300.85,459.84c0-5.45,3.78-8.81,7.73-8.81,4.53,0,6.92,3.28,6.92,7.96,0,.75-.08,1.5-.17,1.91h-10.64c.33,2.98,2.24,4.67,4.94,4.67,1.43,0,2.66-.45,3.89-1.22l1.34,2.44c-1.6,1.08-3.62,1.82-5.75,1.82-4.63,0-8.26-3.25-8.26-8.78ZM312.1,458.23c0-2.58-1.15-4.15-3.44-4.15-1.95,0-3.67,1.46-4.01,4.15h7.45Z"/>
      <path class="cls-2" d="M319.26,451.45h3.22l.3,2.99h.11c1.19-2.18,2.97-3.4,4.76-3.4.85,0,1.39.11,1.9.34l-.68,3.41c-.59-.16-1.02-.27-1.72-.27-1.34,0-2.95.91-3.96,3.47v10.23h-3.93v-16.77Z"/>
      <path class="cls-2" d="M330.2,463.71c0-3.59,2.98-5.46,9.86-6.2-.05-1.8-.78-3.3-3.04-3.3-1.67,0-3.24.75-4.71,1.65l-1.45-2.62c1.84-1.16,4.22-2.2,6.88-2.2,4.19,0,6.25,2.58,6.25,7.25v9.93h-3.22l-.3-1.86h-.11c-1.5,1.28-3.22,2.27-5.2,2.27-2.94,0-4.96-1.99-4.96-4.91ZM340.06,463.72v-3.77c-4.55.57-6.06,1.76-6.06,3.45,0,1.48,1.01,2.13,2.42,2.13s2.4-.67,3.65-1.82Z"/>
      <path class="cls-2" d="M348.72,463.9v-19.8h3.93v20c0,.97.44,1.31.85,1.31.18,0,.31,0,.61-.07l.49,2.94c-.48.19-1.13.34-2.08.34-2.79,0-3.81-1.8-3.81-4.72Z"/>
      <path class="cls-2" d="M365.14,445.89h3.96v18.99h9.27v3.33h-13.23v-22.32Z"/>
      <path class="cls-2" d="M381.03,463.71c0-3.59,2.98-5.46,9.86-6.2-.05-1.8-.78-3.3-3.04-3.3-1.67,0-3.24.75-4.71,1.65l-1.45-2.62c1.84-1.16,4.22-2.2,6.88-2.2,4.19,0,6.25,2.58,6.25,7.25v9.93h-3.22l-.3-1.86h-.11c-1.5,1.28-3.22,2.27-5.2,2.27-2.94,0-4.96-1.99-4.96-4.91ZM390.89,463.72v-3.77c-4.55.57-6.06,1.76-6.06,3.45,0,1.48,1.01,2.13,2.42,2.13s2.4-.67,3.65-1.82Z"/>
      <path class="cls-2" d="M398.44,459.84c0-5.58,3.8-8.81,7.97-8.81s7.97,3.22,7.97,8.81-3.8,8.78-7.97,8.78-7.97-3.22-7.97-8.78ZM410.34,459.84c0-3.36-1.47-5.6-3.93-5.6s-3.93,2.24-3.93,5.6,1.47,5.57,3.93,5.57,3.93-2.21,3.93-5.57Z"/>
      <path class="cls-2" d="M416.48,466.29l1.83-2.5c1.49,1.16,2.93,1.87,4.63,1.87,1.83,0,2.69-.86,2.69-2.01,0-1.41-1.82-2.03-3.6-2.72-2.2-.83-4.71-2.09-4.71-4.89s2.35-5.01,6.1-5.01c2.33,0,4.21.95,5.57,2.01l-1.8,2.42c-1.17-.86-2.36-1.46-3.67-1.46-1.69,0-2.48.81-2.48,1.86,0,1.32,1.69,1.83,3.51,2.5,2.27.85,4.81,1.94,4.81,5.07,0,2.88-2.28,5.2-6.51,5.2-2.29,0-4.71-.98-6.35-2.33Z"/>
    </g>
    <g>
      <path class="cls-2" d="M85.16,422.36v-10.93h5.09v11.22c0,6.64-3.36,9.38-8.59,9.38s-8.59-2.74-8.59-9.38v-6.17c0-.87-.25-1.19-1.15-1.19h-.76v-3.64s1.44-.22,2.85-.22c2.63,0,4.15.9,4.15,4.29v6.64c0,3.39.79,5.41,3.5,5.41s3.5-2.02,3.5-5.41Z"/>
      <path class="cls-2" d="M77.55,405.22c0-2.53,1.62-4.08,4.08-4.08s4.08,1.55,4.08,4.08-1.66,4.08-4.08,4.08-4.08-1.55-4.08-4.08ZM81.62,406.91c.72,0,1.37-.43,1.37-1.7s-.65-1.7-1.37-1.7-1.37.43-1.37,1.7.65,1.7,1.37,1.7Z"/>
      <path class="cls-2" d="M114.57,419.36v12.67h-5.09c-3.39,0-4.84-6.93-7.61-6.93-.87,0-1.48.54-1.48,1.59,0,1.3.43,2.13,2.06,2.13v2.96c-3.61.79-6.96-.4-6.96-5.09,0-2.53,1.52-5.38,5.38-5.38,5.81,0,7.29,6.86,8.62,6.86v-8.8c0-2.31-.54-4.15-4.47-4.15-1.59,0-4.44.18-4.44,3.21h-5.09c0-4.29,2.85-6.96,9.53-6.96,7.58,0,9.56,3.57,9.56,7.9Z"/>
      <path class="cls-2" d="M112.51,405.54c0,2.2-1.37,3.54-1.37,3.54h-3s.61-1.01.61-2.17c0-1.77-1.48-2.81-3.83-2.81s-3.83,1.05-3.83,2.81c0,1.15.65,2.17.65,2.17h-3s-1.41-1.34-1.41-3.54c0-2.56,2.06-5.27,7.58-5.27s7.58,2.71,7.58,5.27Z"/>
      <path class="cls-2" d="M125.18,421.31c5.85,0,7.33,6.86,8.66,6.86v-8.12c0-.65-.07-1.23-.14-1.8-1.55,1.3-3.72,1.8-6.03,1.8-4.98,0-7.87-1.62-7.87-4.19,0-3.18,3.1-4.37,8.16-4.37,3.1,0,4.98.69,4.98.69,1.01,0,1.3-1.26,1.3-2.27v-1.41h5.09v.94c0,2.89-1.73,4.26-3.5,4.26v.18c1.73.9,3.1,2.6,3.1,6.17v11.98h-5.09c-3.39,0-4.84-6.93-7.61-6.93-.87,0-1.48.54-1.48,1.59,0,1.3.4,2.13,2.06,2.13v2.96c-3.61.79-7-.4-7-5.09,0-2.53,1.55-5.38,5.38-5.38ZM132.25,415.61c-.9-.69-2.31-1.08-4.29-1.08-1.26,0-3.18.11-3.18,1.34,0,.97,1.26,1.37,2.89,1.37,2.6,0,3.9-.65,4.58-1.62Z"/>
      <path class="cls-2" d="M130.05,403.12h9.24v4.26h-11.55c-1.77,0-3.18-.9-3.18-3.79v-2.17h4.44v.65c0,.79.29,1.05,1.05,1.05Z"/>
      <path class="cls-2" d="M161.7,420.88v10.86h-5.09v-10.54c0-3.43-.76-5.41-3.5-5.41s-3.46,1.98-3.46,5.41v2.42c0,4.47,1.8,4.66,3.57,4.66v3.61c-5.02.9-8.66-.65-8.66-8.26v-2.74c0-6.64,3.32-9.35,8.55-9.35s8.59,2.71,8.59,9.35Z"/>
      <path class="cls-2" d="M190.86,425.6h-9.38l-1.88,6.13h-5.88l9.09-25.87h6.68l9.13,25.87h-5.88l-1.88-6.13ZM187.21,413.48c-.19-.63-.38-1.26-.58-1.91s-.35-1.22-.47-1.7c-.12.48-.28,1.08-.49,1.79-.2.71-.4,1.38-.58,2.02s-.32,1.09-.42,1.35l-1.84,5.99h6.71l-1.88-5.99c-.12-.41-.28-.93-.47-1.55Z"/>
      <path class="cls-2" d="M220.41,417.27v13.35c-1.35.46-2.75.82-4.2,1.08-1.46.26-3.11.4-4.96.4-3.85,0-6.81-1.13-8.88-3.39-2.07-2.26-3.1-5.56-3.1-9.89,0-2.69.52-5.03,1.57-7,1.05-1.97,2.57-3.5,4.56-4.58,2-1.08,4.44-1.62,7.33-1.62,1.37,0,2.72.14,4.04.43,1.32.29,2.53.67,3.61,1.15l-1.8,4.37c-.79-.41-1.7-.75-2.71-1.01-1.01-.26-2.07-.4-3.18-.4-1.59,0-2.96.36-4.13,1.08s-2.07,1.74-2.71,3.05c-.64,1.31-.96,2.86-.96,4.64,0,1.68.23,3.18.69,4.47.46,1.3,1.18,2.32,2.17,3.05.99.73,2.27,1.1,3.86,1.1.77,0,1.43-.04,1.97-.11.54-.07,1.04-.16,1.5-.25v-5.38h-4.87v-4.55h10.21Z"/>
      <path class="cls-2" d="M226.55,405.98h5.45v21.25h10.46v4.51h-15.91v-25.76Z"/>
      <path class="cls-2" d="M268.15,422.36v-16.17h5.09v16.45c0,6.64-3.36,9.38-8.59,9.38s-8.59-2.74-8.59-9.38v-6.17c0-.87-.25-1.19-1.15-1.19h-.76v-3.64s1.44-.22,2.85-.22c2.63,0,4.15.9,4.15,4.29v6.64c0,3.39.79,5.41,3.5,5.41s3.5-2.02,3.5-5.41Z"/>
      <path class="cls-2" d="M277.61,413.91h4.19c-.4,1.55.25,2.49,1.37,2.49h3.83v4.08h-4.08c-4.19,0-6.42-2.27-5.3-6.57ZM281.79,423.22c-.4,1.55.25,2.49,1.37,2.49h3.83v4.08h-4.08c-4.19,0-6.42-2.27-5.3-6.57h4.19Z"/>
      <path class="cls-2" d="M309.69,418.32v13.42h-4.87v-12.92c0-1.95-.87-3.28-3.07-3.28-2.31,0-4.08,1.8-4.08,3.97v7.94c0,3.39-1.91,4.29-4.55,4.29h-2.06v-3.9h.32c.9,0,1.41-.32,1.41-1.19v-9.6c0-.87-.51-1.19-1.41-1.19h-.32v-3.86h2.06c2.63,0,4.04,1.23,4.04,3.43v.4h.29c.69-1.98,2.67-4.29,5.95-4.29,3.97,0,6.28,2.42,6.28,6.78Z"/>
      <path class="cls-2" d="M302.11,404.5h9.24v4.26h-11.55c-1.77,0-3.18-.9-3.18-3.79v-2.17h4.44v.65c0,.79.29,1.05,1.05,1.05Z"/>
      <path class="cls-2" d="M327.15,424.92v-13.32h4.87v13.82c0,4.33-2.31,6.78-6.28,6.78-3.28,0-5.27-2.31-5.95-4.29h-.29c0,2.67-1.41,3.83-4.04,3.83h-2.06v-3.9h.32c.9,0,1.41-.29,1.41-1.15v-10c0-.87-.51-1.19-1.41-1.19h-.32v-3.9h2.06c2.63,0,4.55.9,4.55,4.33v8.3c0,2.2,1.77,3.97,4.08,3.97s3.07-1.37,3.07-3.28Z"/>
      <path class="cls-2" d="M346.43,428.13v3.9c-5.27,0-8.7-1.19-8.7-8.26v-9.42c0-1.01-.69-1.59-1.7-1.59v-3.32c.79-.32,1.44-1.01,1.44-2.13,0-1.73-1.55-2.35-2.81-2.35v-2.81c4.04,0,7.76,1.52,7.76,5.09,0,2.42-2.06,3.68-3.1,3.83v.14c1.8,0,3.5,1.15,3.5,3.61v8.95c0,4.51,2.09,4.37,3.61,4.37Z"/>
      <path class="cls-2" d="M365.88,423.91v-12.49h5.09v11.94c0,5.85-2.35,8.66-6.53,8.66-2.02,0-3.5-.83-4.15-2.02h-.32c-.69,1.19-2.17,2.02-4.08,2.02-4.29,0-7.79-2.96-6.64-8.66.54-2.6,1.95-4.91,1.95-6.89,0-1.8-1.95-1.59-1.95-1.59v-3.25c5.99-.9,7.04,1.7,7.04,4.08,0,2.6-1.55,6.13-1.95,8.19-.47,2.35.29,3.86,1.77,3.86,1.37,0,1.8-1.37,1.8-3.25v-5.27h4.4v5.27c0,1.88.43,3.25,1.8,3.25,1.48,0,1.77-1.48,1.77-3.86Z"/>
      <path class="cls-2" d="M395.29,419.36v12.67h-5.09c-3.39,0-4.84-6.93-7.61-6.93-.87,0-1.48.54-1.48,1.59,0,1.3.43,2.13,2.06,2.13v2.96c-3.61.79-6.96-.4-6.96-5.09,0-2.53,1.52-5.38,5.38-5.38,5.81,0,7.29,6.86,8.62,6.86v-8.8c0-2.31-.54-4.15-4.47-4.15-1.59,0-4.44.18-4.44,3.21h-5.09c0-4.29,2.85-6.96,9.53-6.96,7.58,0,9.56,3.57,9.56,7.9Z"/>
      <path class="cls-2" d="M407.41,417.52v14.22h-5.09v-14.22c0-2.45-1.84-2.6-4.04-2.45v-3.61c5.45-1.08,9.13.47,9.13,6.06Z"/>
      <path class="cls-2" d="M429.28,419.9v3.68c0,5.2-3.39,8.44-8.44,8.44-4.51,0-7.87-2.06-8.19-6.86h5.02c.36,2.17,1.66,2.74,3.18,2.74,1.84,0,3.54-1.12,3.54-4.33v-3.68c0-3.21-1.7-4.4-3.54-4.4-1.52,0-2.81.61-3.18,2.81h-5.02c.32-4.84,3.68-6.89,8.19-6.89,5.05,0,8.44,3.25,8.44,8.48Z"/>
    </g>
  </g>
</svg>