<?xml version="1.0" encoding="UTF-8"?>
<svg id="Layer_1" data-name="Layer 1" xmlns="http://www.w3.org/2000/svg" viewBox="0 0 500 500">
  <defs>
    <style>
      .cls-1, .cls-2 {
        fill: #fff;
      }

      .cls-2 {
        fill-rule: evenodd;
      }
    </style>
  </defs>
  <path class="cls-2" d="M416.52,144.23l-146.21-108.67c-12.05-8.96-28.55-8.96-40.6,0l-146.23,108.69c-11.91,8.85-16.71,24.41-11.86,38.43l58.28,168.51c4.74,13.71,17.65,22.91,32.16,22.91h175.71c14.5,0,27.4-9.18,32.15-22.88l58.46-168.52c4.87-14.03.07-29.6-11.85-38.46ZM296.32,95.78c5.18,2.66,8.28,8.6,7.44,14.24-.94,6.31-5.4,11.04-11.63,12.05-6.23,1.01-10.86-1.81-14.54-6.41,2.12-2.15,4.18-4.23,6.92-7,.62.92,1.14,2.07,1.98,2.87,2.13,2.03,4.88,1.95,6.78-.03,1.81-1.88,1.77-4.84-.09-6.66-1.9-1.86-4.76-1.87-6.81.16-5.2,5.15-10.33,10.38-15.41,15.49-2.18-2.27-4.24-4.41-6.64-6.91.98-.9,2.36-2.07,3.65-3.34,4.01-3.96,7.95-7.99,11.97-11.94,4.48-4.39,10.9-5.35,16.39-2.53ZM256.24,96.22c1.83,1.85,3.89,3.94,5.87,5.94-6.03,6.04-12.12,12.13-18.28,18.29-1.89-2.03-3.89-4.17-5.76-6.19,5.9-5.85,12.01-11.92,18.18-18.04ZM251.28,88.74c1.86-1.9,3.92-4.01,5.87-6.01,6.12,6.11,12.22,12.2,18.31,18.28-2,1.97-4.1,4.03-6.12,6.02-5.96-6.03-12.01-12.16-18.06-18.29ZM248.78,127.46c-2.04,2.07-4.1,4.15-6.07,6.15-5.98-6.01-12.02-12.08-17.92-18,1.92-1.91,4.03-4.01,6.05-6.01,5.83,5.81,11.9,11.86,17.94,17.87ZM225.98,125.76c1-1.17,2.16-2.21,3.2-3.27,2.14,2.2,4.23,4.35,6.74,6.94-.67.51-1.67,1.08-2.44,1.88-2.02,2.09-2.06,4.92-.21,6.81,1.95,2,4.78,1.99,6.96-.16,4.87-4.8,9.68-9.66,14.51-14.49.35-.35.72-.67.95-.88,2.18,2.14,4.31,4.24,6.11,6.02-5.53,5.76-11.08,11.74-16.91,17.45-1.35,1.32-3.57,2.01-5.51,2.44-5.88,1.31-11.85-1.44-14.81-6.54-3.01-5.19-2.48-11.63,1.39-16.19ZM257.86,135.23c.62.93,1.12,2,1.91,2.77,2.11,2.07,4.87,2.11,6.79.25,1.99-1.92,2-4.79-.13-6.96-4.84-4.92-9.74-9.77-14.61-14.66-.3-.3-.57-.62-.66-.72,2.11-2.19,4.18-4.34,6.35-6.59.27.24.76.63,1.19,1.07,4.73,4.72,9.47,9.44,14.18,14.19,5.75,5.81,5.9,14.49.39,20.09-5.59,5.68-14.31,5.56-20.24-.23-.75-.73-1.59-1.35-2.36-2,2.41-2.42,4.48-4.5,7.19-7.22ZM253.11,71.94c5.76-5.7,14.55-5.77,20.1-.18,5.52,5.55,5.44,14.2-.15,19.96-.74.76-1.38,1.6-2.13,2.48-2.42-2.41-4.5-4.48-6.71-6.69.46-.49.96-1.05,1.49-1.59,2.7-2.7,3.04-5.42.96-7.58-2.12-2.19-4.96-1.88-7.73.88-4.49,4.48-8.97,8.97-13.46,13.45-.44.44-.91.86-1.32,1.24-2.08-2.18-4.1-4.3-6.32-6.63.15-.17.59-.68,1.06-1.15,4.73-4.74,9.45-9.49,14.21-14.2ZM226.39,72.1c4.84-5.27,13.15-6.01,18.81-1.59,1.38,1.07,2.56,2.39,3.83,3.6-2.27,2.28-4.34,4.36-6.93,6.96-.65-.88-1.24-1.96-2.1-2.77-2.02-1.9-4.81-1.84-6.65-.02-1.89,1.87-1.92,4.77.08,6.81,4.69,4.77,9.45,9.48,14.18,14.22.49.49.95,1.01,1.39,1.47-2.18,2.14-4.28,4.2-6.48,6.35.05.02-.17-.02-.31-.15-5.29-5.27-10.66-10.47-15.82-15.86-5.06-5.28-4.96-13.61,0-19.02ZM196.12,107.32c.27-5.49,3.92-10.36,9.21-12.29,6.19-2.25,12.84.05,16.99,5.84-2.09,2.08-4.18,4.16-6.84,6.8-.56-.8-1.08-1.85-1.88-2.62-2.15-2.1-5.06-2.07-6.95-.07-1.72,1.83-1.72,4.7.01,6.51,1.94,2.03,4.78,2.06,6.95-.09,5.2-5.16,10.35-10.38,15.6-15.66,2.27,2.25,4.37,4.32,6.92,6.84-1.73,1.55-3.51,3.02-5.16,4.63-3.83,3.75-7.52,7.63-11.4,11.32-4.18,3.98-10.35,4.82-15.53,2.36-5.17-2.46-8.22-7.68-7.93-13.58ZM212.6,292.38l-30.36-60.33-32.25,60.32h-9.77l37.12-70.89-2.83-5.53-40.74,76.44h-20.69l59.75-115.29,56.21,115.3h-16.42ZM309.37,278.79c-4.44,4.22-10.07,7.49-16.89,9.82-6.83,2.33-14.34,3.49-22.55,3.49-10.88,0-20.56-2.38-29.05-7.16-8.49-4.77-15.12-11.49-19.89-20.14-4.77-8.66-7.16-18.7-7.16-30.13s2.38-21.5,7.16-30.21c4.77-8.71,11.4-15.45,19.89-20.22,8.49-4.77,18.17-7.16,29.05-7.16,7.21,0,13.9.92,20.06,2.75,6.16,1.83,11.51,4.41,16.06,7.74l-6.16,20.31c-3.99-3.11-8.49-5.49-13.48-7.16-4.99-1.66-10.15-2.5-15.48-2.5-10.43,0-18.78,3.3-25.05,9.9-6.27,6.6-9.4,15.45-9.4,26.55s3.13,19.92,9.4,26.47c6.27,6.55,14.62,9.82,25.05,9.82,5.55,0,10.82-1,15.81-3v-20.47h-19.98v-21.31h42.61v52.6ZM386.94,290.11h-69.58v-111.03h22.64v89.89h46.94v21.14Z"/>
  <g>
    <path class="cls-2" d="M250,440.48c99.62,0,180.37.57,180.37,1.26s-80.75,1.26-180.37,1.26-180.37-.57-180.37-1.26,80.75-1.26,180.37-1.26"/>
    <g>
      <path class="cls-1" d="M76.96,448.28h4.67l7.33,22.48h-4.22l-3.42-11.96c-.71-2.38-1.37-4.94-2.03-7.41h-.14c-.62,2.49-1.28,5.03-1.99,7.41l-3.45,11.96h-4.07l7.33-22.48ZM73.96,461.54h10.59v3.13h-10.59v-3.13Z"/>
      <path class="cls-1" d="M90.34,468.82l1.84-2.52c1.5,1.17,2.95,1.88,4.66,1.88,1.84,0,2.71-.87,2.71-2.02,0-1.42-1.83-2.05-3.63-2.74-2.21-.83-4.74-2.1-4.74-4.92s2.36-5.04,6.14-5.04c2.35,0,4.23.96,5.61,2.02l-1.81,2.43c-1.18-.87-2.37-1.47-3.7-1.47-1.7,0-2.5.81-2.5,1.87,0,1.33,1.7,1.84,3.53,2.52,2.28.85,4.84,1.95,4.84,5.1,0,2.9-2.3,5.24-6.56,5.24-2.31,0-4.74-.99-6.39-2.35Z"/>
      <path class="cls-1" d="M105.15,468.82l1.84-2.52c1.5,1.17,2.95,1.88,4.66,1.88,1.84,0,2.71-.87,2.71-2.02,0-1.42-1.83-2.05-3.63-2.74-2.21-.83-4.74-2.1-4.74-4.92s2.36-5.04,6.14-5.04c2.35,0,4.23.96,5.61,2.02l-1.81,2.43c-1.18-.87-2.37-1.47-3.7-1.47-1.7,0-2.5.81-2.5,1.87,0,1.33,1.7,1.84,3.53,2.52,2.28.85,4.84,1.95,4.84,5.1,0,2.9-2.3,5.24-6.56,5.24-2.31,0-4.74-.99-6.39-2.35Z"/>
      <path class="cls-1" d="M121.45,464.46v-10.59h3.96v10.08c0,2.78.8,3.82,2.63,3.82,1.48,0,2.46-.69,3.74-2.34v-11.56h3.96v16.88h-3.24l-.3-2.49h-.11c-1.48,1.76-3.12,2.9-5.43,2.9-3.62,0-5.2-2.45-5.2-6.71Z"/>
      <path class="cls-1" d="M140.75,453.87h3.24l.3,3.01h.11c1.2-2.2,2.99-3.42,4.8-3.42.86,0,1.4.11,1.91.34l-.69,3.44c-.59-.16-1.03-.28-1.73-.28-1.35,0-2.97.92-3.99,3.49v10.3h-3.96v-16.88Z"/>
      <path class="cls-1" d="M151.77,466.22c0-3.62,3-5.5,9.93-6.24-.06-1.81-.78-3.33-3.07-3.33-1.68,0-3.26.76-4.74,1.66l-1.46-2.64c1.86-1.17,4.25-2.21,6.93-2.21,4.22,0,6.3,2.6,6.3,7.3v9.99h-3.24l-.3-1.87h-.11c-1.51,1.29-3.24,2.28-5.24,2.28-2.96,0-4.99-2.01-4.99-4.95ZM161.7,466.23v-3.79c-4.58.58-6.1,1.77-6.1,3.48,0,1.49,1.02,2.14,2.43,2.14s2.42-.67,3.67-1.83Z"/>
      <path class="cls-1" d="M170.42,453.87h3.24l.3,2.28h.11c1.51-1.47,3.23-2.69,5.54-2.69,3.62,0,5.2,2.45,5.2,6.71v10.59h-3.96v-10.08c0-2.78-.8-3.82-2.63-3.82-1.48,0-2.46.73-3.85,2.1v11.8h-3.96v-16.88Z"/>
      <path class="cls-1" d="M188.55,462.33c0-5.62,3.97-8.87,8.47-8.87,2.14,0,3.71.82,4.94,1.9l-1.92,2.57c-.89-.78-1.75-1.24-2.8-1.24-2.72,0-4.61,2.25-4.61,5.64s1.86,5.61,4.48,5.61c1.32,0,2.53-.65,3.49-1.46l1.61,2.61c-1.58,1.4-3.59,2.08-5.51,2.08-4.61,0-8.14-3.24-8.14-8.84Z"/>
      <path class="cls-1" d="M203.61,462.33c0-5.49,3.81-8.87,7.78-8.87,4.56,0,6.97,3.3,6.97,8.01,0,.76-.08,1.51-.17,1.93h-10.72c.33,3,2.25,4.7,4.98,4.7,1.44,0,2.68-.45,3.92-1.22l1.35,2.46c-1.61,1.09-3.64,1.83-5.79,1.83-4.66,0-8.32-3.27-8.32-8.84ZM214.93,460.71c0-2.6-1.15-4.18-3.46-4.18-1.97,0-3.7,1.47-4.04,4.18h7.51Z"/>
      <path class="cls-1" d="M220.47,468.82l1.84-2.52c1.5,1.17,2.95,1.88,4.66,1.88,1.84,0,2.71-.87,2.71-2.02,0-1.42-1.83-2.05-3.63-2.74-2.21-.83-4.74-2.1-4.74-4.92s2.36-5.04,6.14-5.04c2.35,0,4.23.96,5.61,2.02l-1.81,2.43c-1.18-.87-2.37-1.47-3.7-1.47-1.7,0-2.5.81-2.5,1.87,0,1.33,1.7,1.84,3.53,2.52,2.28.85,4.84,1.95,4.84,5.1,0,2.9-2.3,5.24-6.56,5.24-2.31,0-4.74-.99-6.39-2.35Z"/>
      <path class="cls-1" d="M243,459.59c0-7.36,4.66-11.73,10.64-11.73,3.19,0,5.38,1.4,6.79,2.85l-2.13,2.57c-1.13-1.1-2.45-1.95-4.54-1.95-3.99,0-6.67,3.09-6.67,8.14s2.38,8.23,6.89,8.23c1.25,0,2.49-.36,3.2-.99v-4.85h-4.23v-3.27h7.81v9.91c-1.5,1.51-4.1,2.67-7.18,2.67-6.06,0-10.59-4.14-10.59-11.58Z"/>
      <path class="cls-1" d="M264.31,462.33c0-5.49,3.81-8.87,7.78-8.87,4.56,0,6.97,3.3,6.97,8.01,0,.76-.08,1.51-.17,1.93h-10.72c.33,3,2.25,4.7,4.98,4.7,1.44,0,2.68-.45,3.92-1.22l1.35,2.46c-1.61,1.09-3.64,1.83-5.79,1.83-4.66,0-8.32-3.27-8.32-8.84ZM275.63,460.71c0-2.6-1.15-4.18-3.46-4.18-1.97,0-3.7,1.47-4.04,4.18h7.51Z"/>
      <path class="cls-1" d="M282.85,453.87h3.24l.3,2.28h.11c1.51-1.47,3.23-2.69,5.54-2.69,3.62,0,5.2,2.45,5.2,6.71v10.59h-3.96v-10.08c0-2.78-.8-3.82-2.63-3.82-1.48,0-2.46.73-3.85,2.1v11.8h-3.96v-16.88Z"/>
      <path class="cls-1" d="M300.98,462.33c0-5.49,3.81-8.87,7.78-8.87,4.56,0,6.97,3.3,6.97,8.01,0,.76-.08,1.51-.17,1.93h-10.72c.33,3,2.25,4.7,4.98,4.7,1.44,0,2.68-.45,3.92-1.22l1.35,2.46c-1.61,1.09-3.64,1.83-5.79,1.83-4.66,0-8.32-3.27-8.32-8.84ZM312.31,460.71c0-2.6-1.15-4.18-3.46-4.18-1.97,0-3.7,1.47-4.04,4.18h7.51Z"/>
      <path class="cls-1" d="M319.52,453.87h3.24l.3,3.01h.11c1.2-2.2,2.99-3.42,4.8-3.42.86,0,1.4.11,1.91.34l-.69,3.44c-.59-.16-1.03-.28-1.73-.28-1.35,0-2.97.92-3.99,3.49v10.3h-3.96v-16.88Z"/>
      <path class="cls-1" d="M330.54,466.22c0-3.62,3-5.5,9.93-6.24-.06-1.81-.78-3.33-3.07-3.33-1.68,0-3.26.76-4.74,1.66l-1.46-2.64c1.86-1.17,4.25-2.21,6.93-2.21,4.22,0,6.3,2.6,6.3,7.3v9.99h-3.24l-.3-1.87h-.11c-1.51,1.29-3.24,2.28-5.24,2.28-2.96,0-4.99-2.01-4.99-4.95ZM340.47,466.23v-3.79c-4.58.58-6.1,1.77-6.1,3.48,0,1.49,1.02,2.14,2.43,2.14s2.42-.67,3.67-1.83Z"/>
      <path class="cls-1" d="M349.18,466.41v-19.93h3.96v20.14c0,.98.44,1.32.85,1.32.18,0,.32,0,.62-.07l.49,2.96c-.48.19-1.14.34-2.09.34-2.8,0-3.84-1.81-3.84-4.76Z"/>
      <path class="cls-1" d="M365.72,448.28h3.99v19.12h9.33v3.35h-13.32v-22.48Z"/>
      <path class="cls-1" d="M381.72,466.22c0-3.62,3-5.5,9.93-6.24-.06-1.81-.78-3.33-3.07-3.33-1.68,0-3.26.76-4.74,1.66l-1.46-2.64c1.86-1.17,4.25-2.21,6.93-2.21,4.22,0,6.3,2.6,6.3,7.3v9.99h-3.24l-.3-1.87h-.11c-1.51,1.29-3.24,2.28-5.24,2.28-2.96,0-4.99-2.01-4.99-4.95ZM391.65,466.23v-3.79c-4.58.58-6.1,1.77-6.1,3.48,0,1.49,1.02,2.14,2.43,2.14s2.42-.67,3.67-1.83Z"/>
      <path class="cls-1" d="M399.25,462.33c0-5.62,3.82-8.87,8.03-8.87s8.03,3.24,8.03,8.87-3.82,8.84-8.03,8.84-8.03-3.24-8.03-8.84ZM411.24,462.33c0-3.38-1.48-5.64-3.96-5.64s-3.96,2.25-3.96,5.64,1.48,5.61,3.96,5.61,3.96-2.23,3.96-5.61Z"/>
      <path class="cls-1" d="M417.42,468.82l1.84-2.52c1.5,1.17,2.95,1.88,4.66,1.88,1.84,0,2.71-.87,2.71-2.02,0-1.42-1.83-2.05-3.63-2.74-2.21-.83-4.74-2.1-4.74-4.92s2.36-5.04,6.14-5.04c2.35,0,4.23.96,5.61,2.02l-1.81,2.43c-1.18-.87-2.37-1.47-3.7-1.47-1.7,0-2.5.81-2.5,1.87,0,1.33,1.7,1.84,3.53,2.52,2.28.85,4.84,1.95,4.84,5.1,0,2.9-2.3,5.24-6.56,5.24-2.31,0-4.74-.99-6.39-2.35Z"/>
    </g>
    <g>
      <path class="cls-1" d="M83.79,424.58v-11.01h5.12v11.3c0,6.69-3.38,9.45-8.65,9.45s-8.65-2.76-8.65-9.45v-6.21c0-.87-.25-1.2-1.16-1.2h-.76v-3.67s1.45-.22,2.87-.22c2.65,0,4.18.91,4.18,4.32v6.69c0,3.42.8,5.45,3.52,5.45s3.52-2.03,3.52-5.45Z"/>
      <path class="cls-1" d="M76.13,407.32c0-2.54,1.64-4.11,4.11-4.11s4.11,1.56,4.11,4.11-1.67,4.11-4.11,4.11-4.11-1.56-4.11-4.11ZM80.23,409.03c.73,0,1.38-.44,1.38-1.71s-.65-1.71-1.38-1.71-1.38.44-1.38,1.71.65,1.71,1.38,1.71Z"/>
      <path class="cls-1" d="M113.41,421.57v12.75h-5.12c-3.42,0-4.87-6.98-7.67-6.98-.87,0-1.49.54-1.49,1.6,0,1.31.44,2.14,2.07,2.14v2.98c-3.63.8-7.01-.4-7.01-5.12,0-2.54,1.53-5.41,5.41-5.41,5.85,0,7.34,6.9,8.68,6.9v-8.87c0-2.33-.55-4.18-4.51-4.18-1.6,0-4.47.18-4.47,3.23h-5.12c0-4.32,2.87-7.01,9.59-7.01,7.63,0,9.63,3.6,9.63,7.96Z"/>
      <path class="cls-1" d="M111.34,407.65c0,2.22-1.38,3.56-1.38,3.56h-3.02s.62-1.02.62-2.18c0-1.78-1.49-2.83-3.85-2.83s-3.85,1.05-3.85,2.83c0,1.16.65,2.18.65,2.18h-3.02s-1.42-1.34-1.42-3.56c0-2.58,2.07-5.3,7.63-5.3s7.63,2.72,7.63,5.3Z"/>
      <path class="cls-1" d="M124.09,423.53c5.89,0,7.38,6.9,8.72,6.9v-8.18c0-.65-.07-1.24-.15-1.82-1.56,1.31-3.74,1.82-6.07,1.82-5.01,0-7.92-1.63-7.92-4.21,0-3.2,3.12-4.4,8.21-4.4,3.12,0,5.01.69,5.01.69,1.02,0,1.31-1.27,1.31-2.29v-1.42h5.12v.94c0,2.91-1.74,4.29-3.52,4.29v.18c1.74.91,3.12,2.62,3.12,6.21v12.06h-5.12c-3.42,0-4.87-6.98-7.67-6.98-.87,0-1.49.54-1.49,1.6,0,1.31.4,2.14,2.07,2.14v2.98c-3.63.8-7.05-.4-7.05-5.12,0-2.54,1.56-5.41,5.41-5.41ZM131.21,417.79c-.91-.69-2.33-1.09-4.32-1.09-1.27,0-3.2.11-3.2,1.34,0,.98,1.27,1.38,2.91,1.38,2.62,0,3.92-.65,4.61-1.64Z"/>
      <path class="cls-1" d="M129,405.21h9.3v4.29h-11.63c-1.78,0-3.2-.91-3.2-3.82v-2.18h4.47v.65c0,.8.29,1.05,1.05,1.05Z"/>
      <path class="cls-1" d="M160.86,423.09v10.94h-5.12v-10.61c0-3.45-.76-5.45-3.52-5.45s-3.49,2-3.49,5.45v2.43c0,4.51,1.82,4.69,3.6,4.69v3.63c-5.05.91-8.72-.65-8.72-8.32v-2.76c0-6.69,3.34-9.41,8.61-9.41s8.65,2.72,8.65,9.41Z"/>
      <path class="cls-1" d="M190.22,427.85h-9.45l-1.89,6.18h-5.92l9.16-26.05h6.72l9.19,26.05h-5.92l-1.89-6.18ZM186.55,415.64c-.19-.63-.39-1.27-.58-1.93s-.35-1.22-.47-1.71c-.12.48-.28,1.08-.49,1.8-.21.71-.4,1.39-.58,2.03s-.32,1.1-.42,1.36l-1.85,6.03h6.76l-1.89-6.03c-.12-.41-.28-.93-.47-1.56Z"/>
      <path class="cls-1" d="M219.98,419.46v13.44c-1.36.46-2.77.82-4.23,1.09-1.47.27-3.13.4-5,.4-3.88,0-6.86-1.14-8.94-3.42-2.08-2.28-3.12-5.6-3.12-9.96,0-2.71.53-5.06,1.58-7.05,1.05-1.99,2.59-3.52,4.6-4.61,2.01-1.09,4.47-1.64,7.38-1.64,1.38,0,2.74.15,4.07.44,1.33.29,2.54.68,3.63,1.16l-1.82,4.4c-.8-.41-1.71-.75-2.73-1.02s-2.08-.4-3.2-.4c-1.6,0-2.99.36-4.16,1.09-1.17.73-2.08,1.75-2.73,3.07-.64,1.32-.96,2.88-.96,4.67,0,1.7.23,3.2.69,4.51.46,1.31,1.19,2.33,2.18,3.07.99.74,2.29,1.11,3.89,1.11.78,0,1.44-.04,1.98-.11.55-.07,1.05-.16,1.51-.25v-5.41h-4.91v-4.58h10.28Z"/>
      <path class="cls-1" d="M226.16,408.08h5.49v21.4h10.54v4.54h-16.02v-25.94Z"/>
      <path class="cls-1" d="M268.06,424.58v-16.28h5.12v16.57c0,6.69-3.38,9.45-8.65,9.45s-8.65-2.76-8.65-9.45v-6.21c0-.87-.25-1.2-1.16-1.2h-.76v-3.67s1.45-.22,2.87-.22c2.65,0,4.18.91,4.18,4.32v6.69c0,3.42.8,5.45,3.52,5.45s3.52-2.03,3.52-5.45Z"/>
      <path class="cls-1" d="M277.58,416.08h4.21c-.4,1.56.25,2.51,1.38,2.51h3.85v4.11h-4.11c-4.21,0-6.47-2.29-5.34-6.61ZM281.79,425.45c-.4,1.56.25,2.51,1.38,2.51h3.85v4.11h-4.11c-4.21,0-6.47-2.29-5.34-6.61h4.21Z"/>
      <path class="cls-1" d="M309.88,420.51v13.52h-4.91v-13.01c0-1.96-.87-3.31-3.09-3.31-2.33,0-4.11,1.82-4.11,4v7.99c0,3.42-1.93,4.32-4.58,4.32h-2.07v-3.92h.33c.91,0,1.42-.33,1.42-1.2v-9.67c0-.87-.51-1.2-1.42-1.2h-.33v-3.89h2.07c2.65,0,4.07,1.24,4.07,3.45v.4h.29c.69-2,2.69-4.32,6-4.32,4,0,6.32,2.43,6.32,6.83Z"/>
      <path class="cls-1" d="M302.25,406.59h9.3v4.29h-11.63c-1.78,0-3.2-.91-3.2-3.82v-2.18h4.47v.65c0,.8.29,1.05,1.05,1.05Z"/>
      <path class="cls-1" d="M327.47,427.16v-13.41h4.91v13.92c0,4.36-2.33,6.83-6.32,6.83-3.31,0-5.3-2.33-6-4.32h-.29c0,2.69-1.42,3.85-4.07,3.85h-2.07v-3.92h.33c.91,0,1.42-.29,1.42-1.16v-10.06c0-.87-.51-1.2-1.42-1.2h-.33v-3.92h2.07c2.65,0,4.58.91,4.58,4.36v8.36c0,2.22,1.78,4,4.11,4s3.09-1.38,3.09-3.31Z"/>
      <path class="cls-1" d="M346.87,430.39v3.92c-5.31,0-8.76-1.2-8.76-8.32v-9.48c0-1.02-.69-1.6-1.71-1.6v-3.34c.8-.33,1.45-1.02,1.45-2.14,0-1.74-1.56-2.36-2.83-2.36v-2.83c4.07,0,7.81,1.53,7.81,5.12,0,2.43-2.07,3.71-3.12,3.85v.15c1.82,0,3.52,1.16,3.52,3.63v9.01c0,4.54,2.11,4.4,3.63,4.4Z"/>
      <path class="cls-1" d="M366.47,426.14v-12.57h5.12v12.03c0,5.89-2.36,8.72-6.58,8.72-2.03,0-3.52-.84-4.18-2.03h-.33c-.69,1.2-2.18,2.03-4.11,2.03-4.32,0-7.85-2.98-6.69-8.72.55-2.62,1.96-4.94,1.96-6.94,0-1.82-1.96-1.6-1.96-1.6v-3.27c6.03-.91,7.09,1.71,7.09,4.11,0,2.62-1.56,6.18-1.96,8.25-.47,2.36.29,3.89,1.78,3.89,1.38,0,1.82-1.38,1.82-3.27v-5.3h4.43v5.3c0,1.89.44,3.27,1.82,3.27,1.49,0,1.78-1.49,1.78-3.89Z"/>
      <path class="cls-1" d="M396.08,421.57v12.75h-5.12c-3.42,0-4.87-6.98-7.67-6.98-.87,0-1.49.54-1.49,1.6,0,1.31.44,2.14,2.07,2.14v2.98c-3.63.8-7.01-.4-7.01-5.12,0-2.54,1.53-5.41,5.41-5.41,5.85,0,7.34,6.9,8.68,6.9v-8.87c0-2.33-.55-4.18-4.51-4.18-1.6,0-4.47.18-4.47,3.23h-5.12c0-4.32,2.87-7.01,9.59-7.01,7.63,0,9.63,3.6,9.63,7.96Z"/>
      <path class="cls-1" d="M408.28,419.71v14.32h-5.12v-14.32c0-2.47-1.85-2.62-4.07-2.47v-3.63c5.49-1.09,9.19.47,9.19,6.1Z"/>
      <path class="cls-1" d="M430.3,422.11v3.71c0,5.23-3.42,8.5-8.5,8.5-4.54,0-7.92-2.07-8.25-6.9h5.05c.36,2.18,1.67,2.76,3.2,2.76,1.85,0,3.56-1.13,3.56-4.36v-3.71c0-3.23-1.71-4.43-3.56-4.43-1.53,0-2.83.62-3.2,2.83h-5.05c.33-4.87,3.71-6.94,8.25-6.94,5.09,0,8.5,3.27,8.5,8.54Z"/>
    </g>
  </g>
</svg>